<?xml version="1.0" encoding="UTF-8"?>
<!DOCTYPE svg PUBLIC "-//W3C//DTD SVG 1.1//EN" "http://www.w3.org/Graphics/SVG/1.1/DTD/svg11.dtd">
<svg xmlns="http://www.w3.org/2000/svg" version="1.1" width="388px" height="191px" style="shape-rendering:geometricPrecision; text-rendering:geometricPrecision; image-rendering:optimizeQuality; fill-rule:evenodd; clip-rule:evenodd" xmlns:xlink="http://www.w3.org/1999/xlink">
<g><path style="opacity:0.998" fill="#e8cda4" d="M 280.5,34.5 C 279.13,44.044 279.297,53.7106 281,63.5C 282.231,68.5637 285.397,70.5637 290.5,69.5C 294.475,70.3001 297.308,68.9668 299,65.5C 303.034,55.5667 304.867,45.2334 304.5,34.5C 304.838,26.1159 305.671,17.7825 307,9.5C 321.747,12.337 332.58,20.6703 339.5,34.5C 346.314,49.0899 350.314,64.4232 351.5,80.5C 351.633,91.8457 349.8,102.846 346,113.5C 345.284,115.879 344.117,117.879 342.5,119.5C 333.566,122.443 326.399,120.11 321,112.5C 320.617,113.056 320.117,113.389 319.5,113.5C 319.5,112.5 319.5,111.5 319.5,110.5C 318.438,107.622 316.438,105.622 313.5,104.5C 305.086,101.552 298.752,103.885 294.5,111.5C 293.094,111.973 292.427,112.973 292.5,114.5C 292.672,115.492 292.338,116.158 291.5,116.5C 290.069,117.78 289.402,119.447 289.5,121.5C 288.778,121.918 288.278,122.584 288,123.5C 287.501,127.486 287.334,131.486 287.5,135.5C 290.166,135.933 292.832,136.433 295.5,137C 293.5,137.333 291.5,137.667 289.5,138C 290.5,138.333 291.5,138.667 292.5,139C 290.833,139.333 289.167,139.667 287.5,140C 288.96,140.811 289.293,141.645 288.5,142.5C 282.316,142.09 275.982,141.257 269.5,140C 268.167,139.333 266.833,138.667 265.5,138C 265.833,137.667 266.167,137.333 266.5,137C 261.279,136.458 261.279,135.624 266.5,134.5C 265.271,133.719 263.938,133.219 262.5,133C 268.304,132.595 271.304,129.429 271.5,123.5C 271.5,122.833 271.5,122.167 271.5,121.5C 271.5,121.167 271.5,120.833 271.5,120.5C 273.893,112.428 271.56,105.928 264.5,101C 261.633,100.199 258.966,100.366 256.5,101.5C 254.629,101.859 253.129,102.859 252,104.5C 251.503,107.146 251.336,109.813 251.5,112.5C 250.835,110.631 250.169,108.631 249.5,106.5C 244.96,109.624 239.96,110.791 234.5,110C 233.364,108.855 232.364,107.688 231.5,106.5C 229.98,103.421 229.147,100.088 229,96.5C 228.176,87.6567 228.343,78.9901 229.5,70.5C 229.295,78.214 229.795,85.8806 231,93.5C 232.333,94.8333 233.667,96.1667 235,97.5C 242.228,83.7707 253.061,74.1041 267.5,68.5C 265.478,62.68 264.978,56.68 266,50.5C 272.543,37.4195 277.376,23.7528 280.5,9.5C 268.242,11.9181 258.075,17.9181 250,27.5C 245.909,33.4062 242.076,39.4062 238.5,45.5C 239.895,41.7099 241.562,38.0432 243.5,34.5C 251.919,19.267 264.753,9.93364 282,6.5C 283.046,7.77195 283.546,9.27195 283.5,11C 282.452,18.8362 281.452,26.6695 280.5,34.5 Z"/></g>
<g><path style="opacity:1" fill="#fbf1c1" d="M 229.5,70.5 C 231.129,61.5952 234.129,53.2618 238.5,45.5C 242.076,39.4062 245.909,33.4062 250,27.5C 258.075,17.9181 268.242,11.9181 280.5,9.5C 277.376,23.7528 272.543,37.4195 266,50.5C 264.978,56.68 265.478,62.68 267.5,68.5C 253.061,74.1041 242.228,83.7707 235,97.5C 233.667,96.1667 232.333,94.8333 231,93.5C 229.795,85.8806 229.295,78.214 229.5,70.5 Z"/></g>
<g><path style="opacity:1" fill="#fbf2c1" d="M 309.5,11.5 C 326.211,17.7143 337.378,29.381 343,46.5C 347.002,58.0089 349.502,69.8422 350.5,82C 349.979,88.9385 348.812,95.7719 347,102.5C 345.807,104.605 344.14,106.272 342,107.5C 335.609,92.7805 325.442,81.6138 311.5,74C 315.47,69.4693 317.137,64.1359 316.5,58C 314.343,46.5446 312.176,35.0446 310,23.5C 309.501,19.5138 309.334,15.5138 309.5,11.5 Z"/></g>
<g><path style="opacity:1" fill="#acd2fe" d="M 243.5,34.5 C 241.562,38.0432 239.895,41.7099 238.5,45.5C 234.129,53.2618 231.129,61.5952 229.5,70.5C 228.343,78.9901 228.176,87.6567 229,96.5C 229.147,100.088 229.98,103.421 231.5,106.5C 232.372,117.076 237.038,125.576 245.5,132C 252.403,137.087 259.403,141.92 266.5,146.5C 264.948,148.035 263.615,149.869 262.5,152C 253.086,154.467 244.42,158.467 236.5,164C 233.577,166.416 231.243,169.25 229.5,172.5C 228.094,172.973 227.427,173.973 227.5,175.5C 225.147,177.101 222.98,179.101 221,181.5C 220.209,182.745 219.709,184.078 219.5,185.5C 217.5,186.833 215.833,188.5 214.5,190.5C 148.5,190.5 82.5,190.5 16.5,190.5C 8.5,187.167 2.83333,181.5 -0.5,173.5C -0.5,132.833 -0.5,92.1667 -0.5,51.5C 2.64896,43.5191 8.31563,38.0191 16.5,35C 92.1659,34.5 167.833,34.3333 243.5,34.5 Z"/></g>
<g><path style="opacity:1" fill="#add2fe" d="M 280.5,34.5 C 288.5,34.5 296.5,34.5 304.5,34.5C 304.867,45.2334 303.034,55.5667 299,65.5C 297.308,68.9668 294.475,70.3001 290.5,69.5C 285.397,70.5637 282.231,68.5637 281,63.5C 279.297,53.7106 279.13,44.044 280.5,34.5 Z"/></g>
<g><path style="opacity:0.995" fill="#add2fe" d="M 339.5,34.5 C 352.08,34.0405 360.58,39.7072 365,51.5C 365.667,92.1667 365.667,132.833 365,173.5C 361.981,181.684 356.481,187.351 348.5,190.5C 344.167,190.5 339.833,190.5 335.5,190.5C 340.921,189.273 345.254,186.273 348.5,181.5C 350.008,179.819 351.008,177.819 351.5,175.5C 351.573,173.973 350.906,172.973 349.5,172.5C 349.5,171.167 349.5,169.833 349.5,168.5C 349.167,166.167 347.833,164.833 345.5,164.5C 345.5,163.833 345.167,163.5 344.5,163.5C 342.121,160.86 339.621,160.86 337,163.5C 333.117,161.995 330.45,163.329 329,167.5C 328.667,170.167 328.333,172.833 328,175.5C 327.617,176.056 327.117,176.389 326.5,176.5C 324.993,172.155 322.827,168.155 320,164.5C 315.382,161.55 311.048,158.216 307,154.5C 305.711,151.649 305.211,148.649 305.5,145.5C 322.904,143.724 335.237,135.057 342.5,119.5C 344.117,117.879 345.284,115.879 346,113.5C 349.8,102.846 351.633,91.8457 351.5,80.5C 350.314,64.4232 346.314,49.0899 339.5,34.5 Z"/></g>
<g><path style="opacity:1" fill="#cfac54" d="M 256.5,101.5 C 258.288,101.215 259.955,101.548 261.5,102.5C 257.934,109.069 259.434,114.069 266,117.5C 268.257,116.91 269.924,115.577 271,113.5C 271.497,115.81 271.663,118.143 271.5,120.5C 271.5,120.833 271.5,121.167 271.5,121.5C 264.069,123.926 257.735,122.26 252.5,116.5C 251.566,115.432 251.232,114.099 251.5,112.5C 251.336,109.813 251.503,107.146 252,104.5C 253.129,102.859 254.629,101.859 256.5,101.5 Z"/></g>
<g><path style="opacity:1" fill="#3a372e" d="M 256.5,101.5 C 258.966,100.366 261.633,100.199 264.5,101C 271.56,105.928 273.893,112.428 271.5,120.5C 271.663,118.143 271.497,115.81 271,113.5C 269.924,115.577 268.257,116.91 266,117.5C 259.434,114.069 257.934,109.069 261.5,102.5C 259.955,101.548 258.288,101.215 256.5,101.5 Z"/></g>
<g><path style="opacity:1" fill="#06080a" d="M 66.5,129.5 C 65.596,130.209 65.2627,131.209 65.5,132.5C 64.1667,132.5 62.8333,132.5 61.5,132.5C 61.7373,131.209 61.404,130.209 60.5,129.5C 50.9617,127.781 47.4617,122.115 50,112.5C 52.5748,108.093 56.4081,106.093 61.5,106.5C 61.5,105.167 61.5,103.833 61.5,102.5C 62.8333,102.5 64.1667,102.5 65.5,102.5C 65.5,103.833 65.5,105.167 65.5,106.5C 73.5836,106.084 77.5836,109.917 77.5,118C 77.0758,124.924 73.4092,128.758 66.5,129.5 Z"/></g>
<g><path style="opacity:1" fill="#33322c" d="M 313.5,104.5 C 313.263,105.791 313.596,106.791 314.5,107.5C 315.028,118.128 310.528,121.461 301,117.5C 300.211,113.909 300.378,110.409 301.5,107C 300.833,106.333 300.167,106.333 299.5,107C 297.963,108.707 296.296,110.207 294.5,111.5C 298.752,103.885 305.086,101.552 313.5,104.5 Z"/></g>
<g><path style="opacity:1" fill="#8c7852" d="M 313.5,104.5 C 316.438,105.622 318.438,107.622 319.5,110.5C 318.078,109.075 316.411,108.075 314.5,107.5C 313.596,106.791 313.263,105.791 313.5,104.5 Z"/></g>
<g><path style="opacity:1" fill="#faf1c1" d="M 231.5,106.5 C 232.364,107.688 233.364,108.855 234.5,110C 239.96,110.791 244.96,109.624 249.5,106.5C 250.169,108.631 250.835,110.631 251.5,112.5C 251.232,114.099 251.566,115.432 252.5,116.5C 253.658,119.822 255.992,121.988 259.5,123C 263.486,123.499 267.486,123.666 271.5,123.5C 271.304,129.429 268.304,132.595 262.5,133C 263.938,133.219 265.271,133.719 266.5,134.5C 261.279,135.624 261.279,136.458 266.5,137C 266.167,137.333 265.833,137.667 265.5,138C 266.833,138.667 268.167,139.333 269.5,140C 275.982,141.257 282.316,142.09 288.5,142.5C 289.293,141.645 288.96,140.811 287.5,140C 289.167,139.667 290.833,139.333 292.5,139C 291.5,138.667 290.5,138.333 289.5,138C 291.5,137.667 293.5,137.333 295.5,137C 292.832,136.433 290.166,135.933 287.5,135.5C 287.334,131.486 287.501,127.486 288,123.5C 288.278,122.584 288.778,121.918 289.5,121.5C 289.5,122.5 289.5,123.5 289.5,124.5C 292.167,124.5 294.833,124.5 297.5,124.5C 301.925,126.848 306.592,127.015 311.5,125C 312.942,124.623 313.942,123.79 314.5,122.5C 317.42,120.338 319.087,117.338 319.5,113.5C 320.117,113.389 320.617,113.056 321,112.5C 326.399,120.11 333.566,122.443 342.5,119.5C 335.237,135.057 322.904,143.724 305.5,145.5C 297.754,147.286 289.921,148.619 282,149.5C 276.526,149.879 271.359,148.879 266.5,146.5C 259.403,141.92 252.403,137.087 245.5,132C 237.038,125.576 232.372,117.076 231.5,106.5 Z"/></g>
<g><path style="opacity:1" fill="#ccaa54" d="M 314.5,107.5 C 316.411,108.075 318.078,109.075 319.5,110.5C 319.5,111.5 319.5,112.5 319.5,113.5C 319.087,117.338 317.42,120.338 314.5,122.5C 309.02,124.283 303.353,124.949 297.5,124.5C 295.393,123.532 293.059,123.198 290.5,123.5C 290.674,121.139 291.007,118.806 291.5,116.5C 292.338,116.158 292.672,115.492 292.5,114.5C 293.906,114.027 294.573,113.027 294.5,111.5C 296.296,110.207 297.963,108.707 299.5,107C 300.167,106.333 300.833,106.333 301.5,107C 300.378,110.409 300.211,113.909 301,117.5C 310.528,121.461 315.028,118.128 314.5,107.5 Z"/></g>
<g><path style="opacity:1" fill="#9ec0e8" d="M 57.5,110.5 C 58.8333,110.5 60.1667,110.5 61.5,110.5C 61.5,115.5 61.5,120.5 61.5,125.5C 54.9296,124.745 52.4296,121.079 54,114.5C 54.6897,112.65 55.8564,111.316 57.5,110.5 Z"/></g>
<g><path style="opacity:1" fill="#9dbfe7" d="M 65.5,110.5 C 72.382,110.887 74.882,114.553 73,121.5C 71.2845,124.397 68.7845,125.731 65.5,125.5C 65.5,120.5 65.5,115.5 65.5,110.5 Z"/></g>
<g><path style="opacity:1" fill="#030405" d="M 88.5,122.5 C 90.5974,118.628 92.9308,114.961 95.5,111.5C 96.8333,111.5 98.1667,111.5 99.5,111.5C 99.5,118.167 99.5,124.833 99.5,131.5C 98.1667,131.5 96.8333,131.5 95.5,131.5C 95.6657,127.154 95.499,122.821 95,118.5C 94.2828,119.044 93.7828,119.711 93.5,120.5C 91.5113,123.806 89.5113,127.139 87.5,130.5C 85.9547,131.452 84.288,131.785 82.5,131.5C 82.5,124.833 82.5,118.167 82.5,111.5C 83.8333,111.5 85.1667,111.5 86.5,111.5C 86.3343,115.846 86.501,120.179 87,124.5C 87.7172,123.956 88.2172,123.289 88.5,122.5 Z"/></g>
<g><path style="opacity:1" fill="#677d97" d="M 88.5,122.5 C 88.2172,123.289 87.7172,123.956 87,124.5C 86.501,120.179 86.3343,115.846 86.5,111.5C 85.1667,111.5 83.8333,111.5 82.5,111.5C 82.5,118.167 82.5,124.833 82.5,131.5C 81.5088,124.687 81.1755,117.687 81.5,110.5C 83.5,110.5 85.5,110.5 87.5,110.5C 87.1832,114.702 87.5166,118.702 88.5,122.5 Z"/></g>
<g><path style="opacity:1" fill="#667d97" d="M 95.5,111.5 C 96.9187,110.549 98.5853,110.216 100.5,110.5C 100.825,117.687 100.491,124.687 99.5,131.5C 99.5,124.833 99.5,118.167 99.5,111.5C 98.1667,111.5 96.8333,111.5 95.5,111.5 Z"/></g>
<g><path style="opacity:1" fill="#7590ae" d="M 110.5,119.5 C 109.527,117.052 109.194,114.385 109.5,111.5C 108.167,111.5 106.833,111.5 105.5,111.5C 105.5,118.167 105.5,124.833 105.5,131.5C 106.833,131.5 108.167,131.5 109.5,131.5C 108.081,132.451 106.415,132.784 104.5,132.5C 104.5,125.167 104.5,117.833 104.5,110.5C 106.5,110.5 108.5,110.5 110.5,110.5C 110.5,113.5 110.5,116.5 110.5,119.5 Z"/></g>
<g><path style="opacity:1" fill="#030405" d="M 110.5,119.5 C 112.833,119.5 115.167,119.5 117.5,119.5C 118.473,117.052 118.806,114.385 118.5,111.5C 119.833,111.5 121.167,111.5 122.5,111.5C 122.5,118.167 122.5,124.833 122.5,131.5C 121.167,131.5 119.833,131.5 118.5,131.5C 118.5,128.833 118.5,126.167 118.5,123.5C 115.5,123.5 112.5,123.5 109.5,123.5C 109.5,126.167 109.5,128.833 109.5,131.5C 108.167,131.5 106.833,131.5 105.5,131.5C 105.5,124.833 105.5,118.167 105.5,111.5C 106.833,111.5 108.167,111.5 109.5,111.5C 109.194,114.385 109.527,117.052 110.5,119.5 Z"/></g>
<g><path style="opacity:1" fill="#687f99" d="M 122.5,131.5 C 122.5,124.833 122.5,118.167 122.5,111.5C 121.167,111.5 119.833,111.5 118.5,111.5C 118.806,114.385 118.473,117.052 117.5,119.5C 117.5,116.5 117.5,113.5 117.5,110.5C 119.5,110.5 121.5,110.5 123.5,110.5C 123.825,117.687 123.491,124.687 122.5,131.5 Z"/></g>
<g><path style="opacity:1" fill="#7089a5" d="M 134.5,122.5 C 134.217,123.289 133.717,123.956 133,124.5C 132.501,120.179 132.334,115.846 132.5,111.5C 131.167,111.5 129.833,111.5 128.5,111.5C 128.5,118.167 128.5,124.833 128.5,131.5C 130.167,131.5 131.833,131.5 133.5,131.5C 131.735,132.461 129.735,132.795 127.5,132.5C 127.5,125.167 127.5,117.833 127.5,110.5C 129.5,110.5 131.5,110.5 133.5,110.5C 133.183,114.702 133.517,118.702 134.5,122.5 Z"/></g>
<g><path style="opacity:1" fill="#030405" d="M 134.5,122.5 C 136.597,118.628 138.931,114.961 141.5,111.5C 142.833,111.5 144.167,111.5 145.5,111.5C 145.5,118.167 145.5,124.833 145.5,131.5C 144.167,131.5 142.833,131.5 141.5,131.5C 141.666,127.154 141.499,122.821 141,118.5C 140.283,119.044 139.783,119.711 139.5,120.5C 137.246,124.007 135.246,127.673 133.5,131.5C 131.833,131.5 130.167,131.5 128.5,131.5C 128.5,124.833 128.5,118.167 128.5,111.5C 129.833,111.5 131.167,111.5 132.5,111.5C 132.334,115.846 132.501,120.179 133,124.5C 133.717,123.956 134.217,123.289 134.5,122.5 Z"/></g>
<g><path style="opacity:1" fill="#54667c" d="M 141.5,111.5 C 142.919,110.549 144.585,110.216 146.5,110.5C 146.825,117.687 146.491,124.687 145.5,131.5C 145.5,124.833 145.5,118.167 145.5,111.5C 144.167,111.5 142.833,111.5 141.5,111.5 Z"/></g>
<g><path style="opacity:1" fill="#0e1013" d="M 151.5,110.5 C 153.167,110.5 154.833,110.5 156.5,110.5C 156.254,121.843 158.588,122.176 163.5,111.5C 165.5,110.167 167.5,110.167 169.5,111.5C 167.408,114.681 165.075,117.681 162.5,120.5C 164.833,123.833 167.167,127.167 169.5,130.5C 167.5,131.833 165.5,131.833 163.5,130.5C 162.078,127.078 159.745,124.745 156.5,123.5C 156.5,126.5 156.5,129.5 156.5,132.5C 154.833,132.5 153.167,132.5 151.5,132.5C 151.5,125.167 151.5,117.833 151.5,110.5 Z"/></g>
<g><path style="opacity:1" fill="#5a4d36" d="M 294.5,111.5 C 294.573,113.027 293.906,114.027 292.5,114.5C 292.427,112.973 293.094,111.973 294.5,111.5 Z"/></g>
<g><path style="opacity:1" fill="#6c839f" d="M 95.5,131.5 C 94.8333,127.833 94.1667,124.167 93.5,120.5C 93.7828,119.711 94.2828,119.044 95,118.5C 95.499,122.821 95.6657,127.154 95.5,131.5 Z"/></g>
<g><path style="opacity:1" fill="#7d99b9" d="M 141.5,131.5 C 140.833,127.833 140.167,124.167 139.5,120.5C 139.783,119.711 140.283,119.044 141,118.5C 141.499,122.821 141.666,127.154 141.5,131.5 Z"/></g>
<g><path style="opacity:1" fill="#6f6349" d="M 252.5,116.5 C 257.735,122.26 264.069,123.926 271.5,121.5C 271.5,122.167 271.5,122.833 271.5,123.5C 267.486,123.666 263.486,123.499 259.5,123C 255.992,121.988 253.658,119.822 252.5,116.5 Z"/></g>
<g><path style="opacity:1" fill="#948561" d="M 291.5,116.5 C 291.007,118.806 290.674,121.139 290.5,123.5C 293.059,123.198 295.393,123.532 297.5,124.5C 294.833,124.5 292.167,124.5 289.5,124.5C 289.5,123.5 289.5,122.5 289.5,121.5C 289.402,119.447 290.069,117.78 291.5,116.5 Z"/></g>
<g><path style="opacity:1" fill="#8a7952" d="M 314.5,122.5 C 313.942,123.79 312.942,124.623 311.5,125C 306.592,127.015 301.925,126.848 297.5,124.5C 303.353,124.949 309.02,124.283 314.5,122.5 Z"/></g>
<g><path style="opacity:1" fill="#576b81" d="M 60.5,129.5 C 61.404,130.209 61.7373,131.209 61.5,132.5C 62.8333,132.5 64.1667,132.5 65.5,132.5C 65.2627,131.209 65.596,130.209 66.5,129.5C 66.5,130.833 66.5,132.167 66.5,133.5C 64.5,133.5 62.5,133.5 60.5,133.5C 60.5,132.167 60.5,130.833 60.5,129.5 Z"/></g>
<g><path style="opacity:1" fill="#4c4235" d="M 273.5,133.5 C 275.604,133.201 277.604,133.534 279.5,134.5C 278.307,136.384 276.641,136.884 274.5,136C 273.748,135.329 273.414,134.496 273.5,133.5 Z"/></g>
<g><path style="opacity:1" fill="#4e5271" d="M 305.5,145.5 C 305.211,148.649 305.711,151.649 307,154.5C 311.048,158.216 315.382,161.55 320,164.5C 322.827,168.155 324.993,172.155 326.5,176.5C 325.167,177.167 324.167,178.167 323.5,179.5C 320.918,181.713 317.918,183.38 314.5,184.5C 312.433,182.044 310.599,179.378 309,176.5C 299.742,168.855 289.075,164.521 277,163.5C 262.232,162.453 252.399,168.786 247.5,182.5C 245.374,181.952 243.374,181.285 241.5,180.5C 238.648,178.924 235.648,177.424 232.5,176C 231.29,174.961 230.29,173.794 229.5,172.5C 231.243,169.25 233.577,166.416 236.5,164C 244.42,158.467 253.086,154.467 262.5,152C 263.615,149.869 264.948,148.035 266.5,146.5C 271.359,148.879 276.526,149.879 282,149.5C 289.921,148.619 297.754,147.286 305.5,145.5 Z"/></g>
<g><path style="opacity:1" fill="#f7ebbe" d="M 344.5,163.5 C 343.25,163.577 342.417,164.244 342,165.5C 338.846,171.246 340.513,174.246 347,174.5C 348.011,173.944 348.844,173.278 349.5,172.5C 350.906,172.973 351.573,173.973 351.5,175.5C 347.556,175.884 346.556,177.884 348.5,181.5C 345.254,186.273 340.921,189.273 335.5,190.5C 327.833,190.5 320.167,190.5 312.5,190.5C 312.414,189.504 312.748,188.671 313.5,188C 316.246,186.25 319.246,185.25 322.5,185C 323.406,183.301 323.739,181.467 323.5,179.5C 324.167,178.167 325.167,177.167 326.5,176.5C 327.117,176.389 327.617,176.056 328,175.5C 328.333,172.833 328.667,170.167 329,167.5C 330.45,163.329 333.117,161.995 337,163.5C 339.621,160.86 342.121,160.86 344.5,163.5 Z"/></g>
<g><path style="opacity:1" fill="#ecb0af" d="M 344.5,163.5 C 345.167,163.5 345.5,163.833 345.5,164.5C 345.337,166.857 345.503,169.19 346,171.5C 347.039,170.29 348.206,169.29 349.5,168.5C 349.5,169.833 349.5,171.167 349.5,172.5C 348.844,173.278 348.011,173.944 347,174.5C 340.513,174.246 338.846,171.246 342,165.5C 342.417,164.244 343.25,163.577 344.5,163.5 Z"/></g>
<g><path style="opacity:1" fill="#7c7f9a" d="M 323.5,179.5 C 323.739,181.467 323.406,183.301 322.5,185C 319.246,185.25 316.246,186.25 313.5,188C 312.748,188.671 312.414,189.504 312.5,190.5C 291.167,190.5 269.833,190.5 248.5,190.5C 248.806,187.615 248.473,184.948 247.5,182.5C 252.399,168.786 262.232,162.453 277,163.5C 289.075,164.521 299.742,168.855 309,176.5C 310.599,179.378 312.433,182.044 314.5,184.5C 317.918,183.38 320.918,181.713 323.5,179.5 Z"/></g>
<g><path style="opacity:1" fill="#edb1ae" d="M 336.5,164.5 C 337.496,164.414 338.329,164.748 339,165.5C 340.468,169.918 338.968,172.252 334.5,172.5C 334.283,169.579 334.949,166.913 336.5,164.5 Z"/></g>
<g><path style="opacity:1" fill="#f8ebc1" d="M 345.5,164.5 C 347.833,164.833 349.167,166.167 349.5,168.5C 348.206,169.29 347.039,170.29 346,171.5C 345.503,169.19 345.337,166.857 345.5,164.5 Z"/></g>
<g><path style="opacity:1" fill="#7b7d96" d="M 229.5,172.5 C 230.29,173.794 231.29,174.961 232.5,176C 235.648,177.424 238.648,178.924 241.5,180.5C 237.766,180.323 234.099,180.656 230.5,181.5C 230.611,180.883 230.944,180.383 231.5,180C 229.959,178.629 228.625,177.129 227.5,175.5C 227.427,173.973 228.094,172.973 229.5,172.5 Z"/></g>
<g><path style="opacity:1" fill="#edb0ae" d="M 340.5,174.5 C 342.578,175.743 344.412,177.41 346,179.5C 346.711,181.367 346.211,182.867 344.5,184C 341.25,183.251 338.083,182.751 335,182.5C 334.333,180.833 334.333,179.167 335,177.5C 337.209,177.011 339.042,176.011 340.5,174.5 Z"/></g>
<g><path style="opacity:1" fill="#eab4b3" d="M 351.5,175.5 C 351.008,177.819 350.008,179.819 348.5,181.5C 346.556,177.884 347.556,175.884 351.5,175.5 Z"/></g>
<g><path style="opacity:1" fill="#e1c9a4" d="M 227.5,175.5 C 228.625,177.129 229.959,178.629 231.5,180C 230.944,180.383 230.611,180.883 230.5,181.5C 229.209,181.263 228.209,181.596 227.5,182.5C 224.673,183.108 222.007,184.108 219.5,185.5C 219.709,184.078 220.209,182.745 221,181.5C 222.98,179.101 225.147,177.101 227.5,175.5 Z"/></g>
<g><path style="opacity:1" fill="#efbab1" d="M 328.5,177.5 C 331.274,180.111 330.941,182.444 327.5,184.5C 326.28,184.113 325.613,183.28 325.5,182C 326.315,180.357 327.315,178.857 328.5,177.5 Z"/></g>
<g><path style="opacity:1" fill="#373a58" d="M 241.5,180.5 C 243.374,181.285 245.374,181.952 247.5,182.5C 248.473,184.948 248.806,187.615 248.5,190.5C 247.833,190.5 247.167,190.5 246.5,190.5C 246.707,187.873 245.54,186.207 243,185.5C 240.088,186.251 237.921,187.918 236.5,190.5C 233.833,190.5 231.167,190.5 228.5,190.5C 230.654,189.176 232.321,187.343 233.5,185C 232.056,182.966 230.056,182.132 227.5,182.5C 228.209,181.596 229.209,181.263 230.5,181.5C 234.099,180.656 237.766,180.323 241.5,180.5 Z"/></g>
<g><path style="opacity:1" fill="#262737" d="M 227.5,182.5 C 230.056,182.132 232.056,182.966 233.5,185C 232.321,187.343 230.654,189.176 228.5,190.5C 223.833,190.5 219.167,190.5 214.5,190.5C 215.833,188.5 217.5,186.833 219.5,185.5C 222.007,184.108 224.673,183.108 227.5,182.5 Z"/></g>
<g><path style="opacity:1" fill="#232432" d="M 246.5,190.5 C 243.167,190.5 239.833,190.5 236.5,190.5C 237.921,187.918 240.088,186.251 243,185.5C 245.54,186.207 246.707,187.873 246.5,190.5 Z"/></g>
</svg>
