<?xml version="1.0" encoding="UTF-8"?>
<!DOCTYPE svg PUBLIC "-//W3C//DTD SVG 1.1//EN" "http://www.w3.org/Graphics/SVG/1.1/DTD/svg11.dtd">
<svg xmlns="http://www.w3.org/2000/svg" version="1.1" width="387px" height="190px" style="shape-rendering:geometricPrecision; text-rendering:geometricPrecision; image-rendering:optimizeQuality; fill-rule:evenodd; clip-rule:evenodd" xmlns:xlink="http://www.w3.org/1999/xlink">
<g><path style="opacity:0.998" fill="#e7cda3" d="M 255.5,33.5 C 260.173,38.8394 265.173,43.8394 270.5,48.5C 278.956,45.9283 287.623,44.9283 296.5,45.5C 292.425,55.7945 290.592,66.4612 291,77.5C 292.594,66.6976 294.76,56.0309 297.5,45.5C 306.866,46.3994 315.866,48.7327 324.5,52.5C 333.731,46.0524 343.398,40.3857 353.5,35.5C 357.729,33.4433 361.563,30.7766 365,27.5C 366.333,28.1667 367.333,29.1667 368,30.5C 368.398,42.9218 367.565,55.2552 365.5,67.5C 363.493,75.4133 361.327,83.4133 359,91.5C 357.672,94.3118 356.172,96.9784 354.5,99.5C 346.616,102.931 339.282,102.097 332.5,97C 331.672,95.0077 330.339,93.5077 328.5,92.5C 329.263,91.7321 330.263,91.2321 331.5,91C 329.699,90.6827 329.366,90.016 330.5,89C 329.207,88.51 327.873,88.3433 326.5,88.5C 324.596,88.2624 323.262,87.2624 322.5,85.5C 321.653,84.0337 320.32,83.2004 318.5,83C 315.304,82.1955 312.304,82.3622 309.5,83.5C 299.957,87.9863 295.623,95.3196 296.5,105.5C 296.833,105.5 297.167,105.5 297.5,105.5C 296.957,106.742 296.623,108.075 296.5,109.5C 297.175,112.178 297.842,114.844 298.5,117.5C 303.887,117.405 309.22,117.905 314.5,119C 309.456,118.905 304.456,119.072 299.5,119.5C 303.277,121.193 307.277,122.36 311.5,123C 307.558,123.315 303.724,122.815 300,121.5C 299.316,122.784 299.483,123.951 300.5,125C 298.079,126.58 295.413,127.413 292.5,127.5C 285.041,125.193 277.374,124.026 269.5,124C 266.625,122.745 265.625,120.911 266.5,118.5C 263.185,117.158 259.185,117.158 254.5,118.5C 252.246,117.876 250.579,116.543 249.5,114.5C 255.373,113.461 261.207,113.794 267,115.5C 269.312,112.354 271.812,109.354 274.5,106.5C 272.709,105.83 271.042,105.163 269.5,104.5C 271.735,104.795 273.735,104.461 275.5,103.5C 277.489,99.5977 277.823,95.5977 276.5,91.5C 275.538,88.2432 274.038,85.2432 272,82.5C 270.266,80.5494 268.099,79.5494 265.5,79.5C 265.083,78.8761 264.416,78.5427 263.5,78.5C 258.677,80.0818 254.677,81.9152 251.5,84C 252.448,84.4828 253.448,84.6495 254.5,84.5C 254.5,84.8333 254.5,85.1667 254.5,85.5C 254.167,85.5 253.833,85.5 253.5,85.5C 248.417,89.1376 242.751,90.6376 236.5,90C 235.627,88.955 234.627,88.1217 233.5,87.5C 231.233,78.8012 229.566,69.9679 228.5,61C 229.933,51.7732 231.6,42.6066 233.5,33.5C 235.11,28.3357 237.11,23.3357 239.5,18.5C 243.009,15.7174 245.843,16.3841 248,20.5C 250.356,24.9968 252.856,29.3302 255.5,33.5 Z"/></g>
<g><path style="opacity:1" fill="#fbf1c0" d="M 241.5,25.5 C 241.975,37.0932 242.975,48.7599 244.5,60.5C 242.476,62.6898 240.643,65.0232 239,67.5C 235.304,53.1933 236.137,39.1933 241.5,25.5 Z"/></g>
<g><path style="opacity:1" fill="#acd2fe" d="M 233.5,33.5 C 231.6,42.6066 229.933,51.7732 228.5,61C 229.566,69.9679 231.233,78.8012 233.5,87.5C 234.479,99.1304 239.812,108.13 249.5,114.5C 250.579,116.543 252.246,117.876 254.5,118.5C 254.5,119.167 254.833,119.5 255.5,119.5C 259.865,123.189 264.531,126.522 269.5,129.5C 269.022,131.917 268.022,134.084 266.5,136C 249.956,139.915 236.956,148.749 227.5,162.5C 224.092,165.583 221.425,169.249 219.5,173.5C 213.688,177.644 209.355,182.977 206.5,189.5C 143.167,189.5 79.8333,189.5 16.5,189.5C 8.5,186.167 2.83333,180.5 -0.5,172.5C -0.5,131.833 -0.5,91.1667 -0.5,50.5C 2.64896,42.5191 8.31563,37.0191 16.5,34C 88.8326,33.5 161.166,33.3333 233.5,33.5 Z"/></g>
<g><path style="opacity:0.998" fill="#aed2fd" d="M 255.5,33.5 C 286.502,33.3334 317.502,33.5 348.5,34C 350.154,34.6077 351.821,35.1077 353.5,35.5C 343.398,40.3857 333.731,46.0524 324.5,52.5C 315.866,48.7327 306.866,46.3994 297.5,45.5C 297.167,45.5 296.833,45.5 296.5,45.5C 287.623,44.9283 278.956,45.9283 270.5,48.5C 265.173,43.8394 260.173,38.8394 255.5,33.5 Z"/></g>
<g><path style="opacity:1" fill="#fbf1c0" d="M 362.5,37.5 C 363.649,37.7911 364.316,38.6244 364.5,40C 362.416,47.0841 360.582,54.2508 359,61.5C 355.236,66.9267 351.903,72.5933 349,78.5C 347.533,75.7336 345.7,73.2336 343.5,71C 345.286,70.2155 346.786,69.0488 348,67.5C 350.201,61.8979 352.201,56.2312 354,50.5C 356.346,45.7964 359.18,41.463 362.5,37.5 Z"/></g>
<g><path style="opacity:1" fill="#c2a07a" d="M 296.5,45.5 C 296.833,45.5 297.167,45.5 297.5,45.5C 294.76,56.0309 292.594,66.6976 291,77.5C 290.592,66.4612 292.425,55.7945 296.5,45.5 Z"/></g>
<g><path style="opacity:0.996" fill="#add2fe" d="M 365.5,67.5 C 365.667,102.502 365.5,137.502 365,172.5C 361.981,180.684 356.481,186.351 348.5,189.5C 347.833,189.5 347.167,189.5 346.5,189.5C 351.38,182.892 355.714,175.892 359.5,168.5C 361.163,166.562 361.829,164.228 361.5,161.5C 361.5,160.167 360.833,159.5 359.5,159.5C 360.301,157.958 360.634,156.292 360.5,154.5C 360.011,151.676 358.344,150.343 355.5,150.5C 355.5,149.833 355.167,149.5 354.5,149.5C 351.962,145.547 349.295,145.547 346.5,149.5C 344.5,148.167 342.5,148.167 340.5,149.5C 337.893,154.136 335.893,158.802 334.5,163.5C 332.321,153.817 326.655,146.984 317.5,143C 313.083,139.57 311.416,135.07 312.5,129.5C 331.714,126.885 345.714,116.885 354.5,99.5C 356.172,96.9784 357.672,94.3118 359,91.5C 361.327,83.4133 363.493,75.4133 365.5,67.5 Z"/></g>
<g><path style="opacity:1" fill="#dcc872" d="M 265.5,80.5 C 263.021,85.0294 262.855,89.6961 265,94.5C 268.294,98.4734 271.46,98.4734 274.5,94.5C 275.477,97.2869 275.81,100.287 275.5,103.5C 261.011,106.001 254.011,100.001 254.5,85.5C 254.5,85.1667 254.5,84.8333 254.5,84.5C 257.634,81.7689 261.301,80.4355 265.5,80.5 Z"/></g>
<g><path style="opacity:1" fill="#32312c" d="M 265.5,79.5 C 268.099,79.5494 270.266,80.5494 272,82.5C 274.038,85.2432 275.538,88.2432 276.5,91.5C 276.218,92.7777 275.551,93.7777 274.5,94.5C 271.46,98.4734 268.294,98.4734 265,94.5C 262.855,89.6961 263.021,85.0294 265.5,80.5C 265.5,80.1667 265.5,79.8333 265.5,79.5 Z"/></g>
<g><path style="opacity:1" fill="#7b6d4f" d="M 265.5,79.5 C 265.5,79.8333 265.5,80.1667 265.5,80.5C 261.301,80.4355 257.634,81.7689 254.5,84.5C 253.448,84.6495 252.448,84.4828 251.5,84C 254.677,81.9152 258.677,80.0818 263.5,78.5C 264.416,78.5427 265.083,78.8761 265.5,79.5 Z"/></g>
<g><path style="opacity:1" fill="#32322d" d="M 322.5,85.5 C 322.352,87.9339 322.186,90.6005 322,93.5C 319.146,100.516 314.48,102.182 308,98.5C 306.353,94.8433 306.187,91.1766 307.5,87.5C 308.674,86.4863 309.34,85.153 309.5,83.5C 312.304,82.3622 315.304,82.1955 318.5,83C 320.32,83.2004 321.653,84.0337 322.5,85.5 Z"/></g>
<g><path style="opacity:1" fill="#faf2c1" d="M 253.5,85.5 C 251.724,98.0449 257.057,104.378 269.5,104.5C 271.042,105.163 272.709,105.83 274.5,106.5C 271.812,109.354 269.312,112.354 267,115.5C 261.207,113.794 255.373,113.461 249.5,114.5C 239.812,108.13 234.479,99.1304 233.5,87.5C 234.627,88.1217 235.627,88.955 236.5,90C 242.751,90.6376 248.417,89.1376 253.5,85.5 Z"/></g>
<g><path style="opacity:1" fill="#d9c472" d="M 322.5,85.5 C 323.262,87.2624 324.596,88.2624 326.5,88.5C 327.038,90.1172 327.371,91.7839 327.5,93.5C 327.498,97.1645 326.165,100.165 323.5,102.5C 320.611,103.525 318.611,104.859 317.5,106.5C 317.158,107.338 316.492,107.672 315.5,107.5C 310.623,106.589 305.623,105.589 300.5,104.5C 299.274,104.52 298.274,104.853 297.5,105.5C 297.167,105.5 296.833,105.5 296.5,105.5C 296.94,98.1184 299.94,91.9518 305.5,87C 306.437,86.3083 307.103,86.475 307.5,87.5C 306.187,91.1766 306.353,94.8433 308,98.5C 314.48,102.182 319.146,100.516 322,93.5C 322.186,90.6005 322.352,87.9339 322.5,85.5 Z"/></g>
<g><path style="opacity:1" fill="#84755b" d="M 326.5,88.5 C 327.873,88.3433 329.207,88.51 330.5,89C 329.366,90.016 329.699,90.6827 331.5,91C 330.263,91.2321 329.263,91.7321 328.5,92.5C 328.5,93.1667 328.167,93.5 327.5,93.5C 327.371,91.7839 327.038,90.1172 326.5,88.5 Z"/></g>
<g><path style="opacity:1" fill="#faf1c1" d="M 328.5,92.5 C 330.339,93.5077 331.672,95.0077 332.5,97C 339.282,102.097 346.616,102.931 354.5,99.5C 345.714,116.885 331.714,126.885 312.5,129.5C 304.022,130.936 295.522,132.269 287,133.5C 280.737,133.909 274.903,132.576 269.5,129.5C 264.531,126.522 259.865,123.189 255.5,119.5C 259.099,118.656 262.766,118.323 266.5,118.5C 265.625,120.911 266.625,122.745 269.5,124C 277.374,124.026 285.041,125.193 292.5,127.5C 295.413,127.413 298.079,126.58 300.5,125C 299.483,123.951 299.316,122.784 300,121.5C 303.724,122.815 307.558,123.315 311.5,123C 307.277,122.36 303.277,121.193 299.5,119.5C 304.456,119.072 309.456,118.905 314.5,119C 309.22,117.905 303.887,117.405 298.5,117.5C 297.842,114.844 297.175,112.178 296.5,109.5C 296.623,108.075 296.957,106.742 297.5,105.5C 303.391,106.956 309.391,107.623 315.5,107.5C 316.492,107.672 317.158,107.338 317.5,106.5C 320.267,106.13 322.267,104.796 323.5,102.5C 326.165,100.165 327.498,97.1645 327.5,93.5C 328.167,93.5 328.5,93.1667 328.5,92.5 Z"/></g>
<g><path style="opacity:1" fill="#675b42" d="M 309.5,83.5 C 309.34,85.153 308.674,86.4863 307.5,87.5C 307.103,86.475 306.437,86.3083 305.5,87C 299.94,91.9518 296.94,98.1184 296.5,105.5C 295.623,95.3196 299.957,87.9863 309.5,83.5 Z"/></g>
<g><path style="opacity:1" fill="#030405" d="M 84.5,96.5 C 84.5,104.833 84.5,113.167 84.5,121.5C 85.8333,121.5 87.1667,121.5 88.5,121.5C 88.5,124.833 88.5,128.167 88.5,131.5C 86.8333,131.5 85.1667,131.5 83.5,131.5C 83.5,129.167 83.5,126.833 83.5,124.5C 77.31,124.177 71.31,124.51 65.5,125.5C 64.5386,127.265 64.2053,129.265 64.5,131.5C 63.1667,131.5 61.8333,131.5 60.5,131.5C 59.7318,126.779 60.8985,122.779 64,119.5C 66.2946,112.021 67.4613,104.354 67.5,96.5C 73.1667,96.5 78.8333,96.5 84.5,96.5 Z"/></g>
<g><path style="opacity:1" fill="#435264" d="M 84.5,96.5 C 85.4924,104.316 85.8257,112.316 85.5,120.5C 86.791,120.263 87.791,120.596 88.5,121.5C 87.1667,121.5 85.8333,121.5 84.5,121.5C 84.5,113.167 84.5,104.833 84.5,96.5 Z"/></g>
<g><path style="opacity:1" fill="#98885b" d="M 276.5,91.5 C 277.823,95.5977 277.489,99.5977 275.5,103.5C 275.81,100.287 275.477,97.2869 274.5,94.5C 275.551,93.7777 276.218,92.7777 276.5,91.5 Z"/></g>
<g><path style="opacity:1" fill="#6d6349" d="M 253.5,85.5 C 253.833,85.5 254.167,85.5 254.5,85.5C 254.011,100.001 261.011,106.001 275.5,103.5C 273.735,104.461 271.735,104.795 269.5,104.5C 257.057,104.378 251.724,98.0449 253.5,85.5 Z"/></g>
<g><path style="opacity:1" fill="#a9cffa" d="M 79.5,100.5 C 79.5,107.167 79.5,113.833 79.5,120.5C 75.8333,120.5 72.1667,120.5 68.5,120.5C 71.0354,114.111 72.0354,107.444 71.5,100.5C 74.1667,100.5 76.8333,100.5 79.5,100.5 Z"/></g>
<g><path style="opacity:1" fill="#7a95b5" d="M 79.5,100.5 C 80.4912,107.313 80.8245,114.313 80.5,121.5C 76.2984,121.817 72.2984,121.483 68.5,120.5C 72.1667,120.5 75.8333,120.5 79.5,120.5C 79.5,113.833 79.5,107.167 79.5,100.5 Z"/></g>
<g><path style="opacity:1" fill="#0e1113" d="M 92.5,103.5 C 94.1667,103.5 95.8333,103.5 97.5,103.5C 97.5,106.5 97.5,109.5 97.5,112.5C 98.8333,112.5 100.167,112.5 101.5,112.5C 102.81,105.173 107.143,102.339 114.5,104C 118.802,105.935 120.802,109.268 120.5,114C 119.999,124.058 114.999,127.391 105.5,124C 102.976,122.117 101.642,119.617 101.5,116.5C 100.167,116.5 98.8333,116.5 97.5,116.5C 97.5,119.5 97.5,122.5 97.5,125.5C 95.8333,125.5 94.1667,125.5 92.5,125.5C 92.5,118.167 92.5,110.833 92.5,103.5 Z"/></g>
<g><path style="opacity:1" fill="#121417" d="M 152.5,103.5 C 157.126,102.7 160.96,104.034 164,107.5C 164.211,113.218 164.711,118.885 165.5,124.5C 163.264,125.812 161.264,125.479 159.5,123.5C 150.948,127.319 147.115,124.652 148,115.5C 151.327,112.846 155.161,111.846 159.5,112.5C 160.17,109.41 159.003,107.743 156,107.5C 153.58,109.398 150.746,110.398 147.5,110.5C 148.002,107.331 149.669,104.998 152.5,103.5 Z"/></g>
<g><path style="opacity:1" fill="#54667c" d="M 129.5,104.5 C 128.167,104.5 126.833,104.5 125.5,104.5C 125.5,111.167 125.5,117.833 125.5,124.5C 124.509,117.687 124.175,110.687 124.5,103.5C 126.415,103.216 128.081,103.549 129.5,104.5 Z"/></g>
<g><path style="opacity:1" fill="#030405" d="M 129.5,104.5 C 129.5,107.167 129.5,109.833 129.5,112.5C 132.167,112.5 134.833,112.5 137.5,112.5C 138.473,110.052 138.806,107.385 138.5,104.5C 139.833,104.5 141.167,104.5 142.5,104.5C 142.5,111.167 142.5,117.833 142.5,124.5C 141.167,124.5 139.833,124.5 138.5,124.5C 138.5,121.833 138.5,119.167 138.5,116.5C 135.5,116.5 132.5,116.5 129.5,116.5C 129.5,119.167 129.5,121.833 129.5,124.5C 128.167,124.5 126.833,124.5 125.5,124.5C 125.5,117.833 125.5,111.167 125.5,104.5C 126.833,104.5 128.167,104.5 129.5,104.5 Z"/></g>
<g><path style="opacity:1" fill="#53657a" d="M 142.5,104.5 C 141.167,104.5 139.833,104.5 138.5,104.5C 138.806,107.385 138.473,110.052 137.5,112.5C 137.5,109.5 137.5,106.5 137.5,103.5C 139.415,103.216 141.081,103.549 142.5,104.5 Z"/></g>
<g><path style="opacity:1" fill="#776c50" d="M 323.5,102.5 C 322.267,104.796 320.267,106.13 317.5,106.5C 318.611,104.859 320.611,103.525 323.5,102.5 Z"/></g>
<g><path style="opacity:1" fill="#6d634c" d="M 297.5,105.5 C 298.274,104.853 299.274,104.52 300.5,104.5C 305.623,105.589 310.623,106.589 315.5,107.5C 309.391,107.623 303.391,106.956 297.5,105.5 Z"/></g>
<g><path style="opacity:1" fill="#a7ccf6" d="M 108.5,107.5 C 111.044,107.104 113.211,107.771 115,109.5C 115.667,112.833 115.667,116.167 115,119.5C 111.195,122.539 108.195,121.872 106,117.5C 105.024,113.673 105.857,110.34 108.5,107.5 Z"/></g>
<g><path style="opacity:1" fill="#4f4437" d="M 277.5,113.5 C 280.734,113.205 283.734,113.871 286.5,115.5C 283.015,119.636 279.682,119.469 276.5,115C 277.056,114.617 277.389,114.117 277.5,113.5 Z"/></g>
<g><path style="opacity:1" fill="#a2c6ef" d="M 153.5,115.5 C 155.5,115.5 157.5,115.5 159.5,115.5C 159.864,120.659 157.53,122.492 152.5,121C 151.243,118.924 151.576,117.09 153.5,115.5 Z"/></g>
<g><path style="opacity:1" fill="#9d9376" d="M 266.5,118.5 C 262.766,118.323 259.099,118.656 255.5,119.5C 254.833,119.5 254.5,119.167 254.5,118.5C 259.185,117.158 263.185,117.158 266.5,118.5 Z"/></g>
<g><path style="opacity:1" fill="#516378" d="M 65.5,125.5 C 65.5,127.833 65.5,130.167 65.5,132.5C 63.5853,132.784 61.9187,132.451 60.5,131.5C 61.8333,131.5 63.1667,131.5 64.5,131.5C 64.2053,129.265 64.5386,127.265 65.5,125.5 Z"/></g>
<g><path style="opacity:1" fill="#848298" d="M 269.5,129.5 C 274.903,132.576 280.737,133.909 287,133.5C 295.522,132.269 304.022,130.936 312.5,129.5C 311.416,135.07 313.083,139.57 317.5,143C 326.655,146.984 332.321,153.817 334.5,163.5C 333.075,164.922 332.075,166.589 331.5,168.5C 328.588,169.815 325.588,170.982 322.5,172C 321.663,173.011 321.33,174.178 321.5,175.5C 321.5,176.167 321.167,176.5 320.5,176.5C 320.776,169.599 318.109,164.099 312.5,160C 309.167,158 305.833,156 302.5,154C 296.457,152.605 290.457,151.105 284.5,149.5C 284.5,147.5 284.5,145.5 284.5,143.5C 283.594,145.386 282.594,147.22 281.5,149C 266.528,148.644 255.862,155.144 249.5,168.5C 244.094,167.649 238.761,167.649 233.5,168.5C 231.833,166.167 229.833,164.167 227.5,162.5C 236.956,148.749 249.956,139.915 266.5,136C 268.022,134.084 269.022,131.917 269.5,129.5 Z"/></g>
<g><path style="opacity:1" fill="#faefc1" d="M 354.5,149.5 C 353.504,149.414 352.671,149.748 352,150.5C 350.851,153.393 350.351,156.393 350.5,159.5C 352.912,159.331 355.079,159.997 357,161.5C 358.301,161.361 359.134,160.695 359.5,159.5C 360.833,159.5 361.5,160.167 361.5,161.5C 357.463,163.316 356.796,165.649 359.5,168.5C 355.714,175.892 351.38,182.892 346.5,189.5C 340.167,189.5 333.833,189.5 327.5,189.5C 328.111,186.279 329.278,183.279 331,180.5C 331.497,177.854 331.664,175.187 331.5,172.5C 331.5,171.167 331.5,169.833 331.5,168.5C 332.075,166.589 333.075,164.922 334.5,163.5C 335.893,158.802 337.893,154.136 340.5,149.5C 342.5,148.167 344.5,148.167 346.5,149.5C 349.295,145.547 351.962,145.547 354.5,149.5 Z"/></g>
<g><path style="opacity:1" fill="#b19aac" d="M 320.5,176.5 C 319.8,180.798 319.467,185.131 319.5,189.5C 312.833,189.5 306.167,189.5 299.5,189.5C 297.218,184.667 293.551,181.167 288.5,179C 285.173,178.39 281.839,177.89 278.5,177.5C 278.5,181.5 278.5,185.5 278.5,189.5C 277.833,189.5 277.167,189.5 276.5,189.5C 276.5,185.833 276.5,182.167 276.5,178.5C 269.05,178.93 263.717,182.597 260.5,189.5C 257.833,189.5 255.167,189.5 252.5,189.5C 252.056,183.168 251.556,176.835 251,170.5C 250.283,169.956 249.783,169.289 249.5,168.5C 255.862,155.144 266.528,148.644 281.5,149C 282.594,147.22 283.594,145.386 284.5,143.5C 284.5,145.5 284.5,147.5 284.5,149.5C 290.457,151.105 296.457,152.605 302.5,154C 305.833,156 309.167,158 312.5,160C 318.109,164.099 320.776,169.599 320.5,176.5 Z"/></g>
<g><path style="opacity:1" fill="#ecb0af" d="M 354.5,149.5 C 355.167,149.5 355.5,149.833 355.5,150.5C 355.337,152.857 355.503,155.19 356,157.5C 357.129,155.859 358.629,154.859 360.5,154.5C 360.634,156.292 360.301,157.958 359.5,159.5C 359.134,160.695 358.301,161.361 357,161.5C 355.079,159.997 352.912,159.331 350.5,159.5C 350.351,156.393 350.851,153.393 352,150.5C 352.671,149.748 353.504,149.414 354.5,149.5 Z"/></g>
<g><path style="opacity:1" fill="#eeb2af" d="M 345.5,150.5 C 349.225,150.78 350.392,152.78 349,156.5C 348.072,159.035 346.238,160.035 343.5,159.5C 343.405,156.308 344.071,153.308 345.5,150.5 Z"/></g>
<g><path style="opacity:1" fill="#f6ebc4" d="M 355.5,150.5 C 358.344,150.343 360.011,151.676 360.5,154.5C 358.629,154.859 357.129,155.859 356,157.5C 355.503,155.19 355.337,152.857 355.5,150.5 Z"/></g>
<g><path style="opacity:1" fill="#e1c8a4" d="M 227.5,162.5 C 229.833,164.167 231.833,166.167 233.5,168.5C 231.214,168.595 229.214,169.262 227.5,170.5C 225.03,170.654 223.03,171.654 221.5,173.5C 220.833,173.5 220.167,173.5 219.5,173.5C 221.425,169.249 224.092,165.583 227.5,162.5 Z"/></g>
<g><path style="opacity:1" fill="#edb1ae" d="M 349.5,161.5 C 350.552,161.351 351.552,161.517 352.5,162C 353.158,163.905 354.325,165.405 356,166.5C 357.072,169.553 356.072,171.553 353,172.5C 350.032,170.922 346.865,170.255 343.5,170.5C 343.318,168.409 343.652,166.409 344.5,164.5C 346.544,163.935 348.21,162.935 349.5,161.5 Z"/></g>
<g><path style="opacity:1" fill="#ecb2b0" d="M 361.5,161.5 C 361.829,164.228 361.163,166.562 359.5,168.5C 356.796,165.649 357.463,163.316 361.5,161.5 Z"/></g>
<g><path style="opacity:1" fill="#edb2af" d="M 336.5,165.5 C 337.649,165.791 338.316,166.624 338.5,168C 338.642,170.912 337.309,172.412 334.5,172.5C 334.166,169.812 334.832,167.479 336.5,165.5 Z"/></g>
<g><path style="opacity:1" fill="#686582" d="M 249.5,168.5 C 249.783,169.289 250.283,169.956 251,170.5C 251.556,176.835 252.056,183.168 252.5,189.5C 249.167,189.5 245.833,189.5 242.5,189.5C 247.104,185.959 249.271,181.292 249,175.5C 246.599,174.398 244.099,174.231 241.5,175C 238.628,177.537 236.128,180.37 234,183.5C 233.506,181.866 233.34,180.199 233.5,178.5C 232.448,178.649 231.448,178.483 230.5,178C 236.455,172.699 235.455,170.199 227.5,170.5C 229.214,169.262 231.214,168.595 233.5,168.5C 238.761,167.649 244.094,167.649 249.5,168.5 Z"/></g>
<g><path style="opacity:1" fill="#b39dab" d="M 331.5,168.5 C 331.5,169.833 331.5,171.167 331.5,172.5C 328.004,173.078 324.671,174.078 321.5,175.5C 321.33,174.178 321.663,173.011 322.5,172C 325.588,170.982 328.588,169.815 331.5,168.5 Z"/></g>
<g><path style="opacity:1" fill="#e5caa2" d="M 331.5,172.5 C 331.664,175.187 331.497,177.854 331,180.5C 329.278,183.279 328.111,186.279 327.5,189.5C 324.833,189.5 322.167,189.5 319.5,189.5C 319.467,185.131 319.8,180.798 320.5,176.5C 321.167,176.5 321.5,176.167 321.5,175.5C 324.671,174.078 328.004,173.078 331.5,172.5 Z"/></g>
<g><path style="opacity:1" fill="#4c4b61" d="M 227.5,170.5 C 235.455,170.199 236.455,172.699 230.5,178C 231.448,178.483 232.448,178.649 233.5,178.5C 233.34,180.199 233.506,181.866 234,183.5C 236.128,180.37 238.628,177.537 241.5,175C 244.099,174.231 246.599,174.398 249,175.5C 249.271,181.292 247.104,185.959 242.5,189.5C 234.167,189.5 225.833,189.5 217.5,189.5C 218.716,187.549 220.382,186.049 222.5,185C 220.384,185.282 218.217,185.782 216,186.5C 214.029,186.719 212.862,185.885 212.5,184C 214.632,179.705 217.632,176.205 221.5,173.5C 223.03,171.654 225.03,170.654 227.5,170.5 Z"/></g>
<g><path style="opacity:1" fill="#848298" d="M 276.5,189.5 C 271.167,189.5 265.833,189.5 260.5,189.5C 263.717,182.597 269.05,178.93 276.5,178.5C 276.5,182.167 276.5,185.833 276.5,189.5 Z"/></g>
<g><path style="opacity:1" fill="#848298" d="M 299.5,189.5 C 292.5,189.5 285.5,189.5 278.5,189.5C 278.5,185.5 278.5,181.5 278.5,177.5C 281.839,177.89 285.173,178.39 288.5,179C 293.551,181.167 297.218,184.667 299.5,189.5 Z"/></g>
<g><path style="opacity:1" fill="#676785" d="M 219.5,173.5 C 220.167,173.5 220.833,173.5 221.5,173.5C 217.632,176.205 214.632,179.705 212.5,184C 212.862,185.885 214.029,186.719 216,186.5C 218.217,185.782 220.384,185.282 222.5,185C 220.382,186.049 218.716,187.549 217.5,189.5C 213.833,189.5 210.167,189.5 206.5,189.5C 209.355,182.977 213.688,177.644 219.5,173.5 Z"/></g>
</svg>
