<?xml version="1.0" encoding="UTF-8"?>
<!DOCTYPE svg PUBLIC "-//W3C//DTD SVG 1.1//EN" "http://www.w3.org/Graphics/SVG/1.1/DTD/svg11.dtd">
<svg xmlns="http://www.w3.org/2000/svg" version="1.1" width="367px" height="184px" style="shape-rendering:geometricPrecision; text-rendering:geometricPrecision; image-rendering:optimizeQuality; fill-rule:evenodd; clip-rule:evenodd" xmlns:xlink="http://www.w3.org/1999/xlink">
<g><path style="opacity:0.969" fill="#4f4e64" d="M 155.5,25.5 C 154.728,26.6935 153.728,27.6935 152.5,28.5C 149.883,23.7499 146.383,22.7499 142,25.5C 141.505,27.4727 141.338,29.4727 141.5,31.5C 139.473,31.6621 137.473,31.4955 135.5,31C 134.663,29.9887 134.33,28.8221 134.5,27.5C 133.94,21.0567 136.94,17.7233 143.5,17.5C 149.241,17.6949 153.241,20.3616 155.5,25.5 Z"/></g>
<g><path style="opacity:1" fill="#fcfcfc" d="M 152.5,28.5 C 158.66,34.7742 159.993,41.9408 156.5,50C 152.793,50.9358 149.626,52.7692 147,55.5C 145.442,53.6411 143.609,52.1411 141.5,51C 143.297,49.4059 144.297,47.4059 144.5,45C 143.864,41.2724 142.864,37.7724 141.5,34.5C 141.5,34.1667 141.5,33.8333 141.5,33.5C 141.5,32.8333 141.5,32.1667 141.5,31.5C 141.338,29.4727 141.505,27.4727 142,25.5C 146.383,22.7499 149.883,23.7499 152.5,28.5 Z"/></g>
<g><path style="opacity:0.992" fill="#505066" d="M 58.5,27.5 C 63.2597,32.7365 62.2597,36.0698 55.5,37.5C 54.3198,32.3395 51.3198,31.1728 46.5,34C 45.3606,35.7804 44.3606,37.6137 43.5,39.5C 42.5,39.5 41.5,39.5 40.5,39.5C 40.9072,34.6856 42.9072,30.6856 46.5,27.5C 50.6411,25.0118 54.6411,25.0118 58.5,27.5 Z"/></g>
<g><path style="opacity:0.998" fill="#add2fe" d="M 46.5,27.5 C 42.9072,30.6856 40.9072,34.6856 40.5,39.5C 41.5,39.5 42.5,39.5 43.5,39.5C 42.8333,40.8333 42.1667,42.1667 41.5,43.5C 40.0222,43.238 38.6888,43.5713 37.5,44.5C 38.3202,46.1112 39.6536,46.7778 41.5,46.5C 40.5975,49.3915 40.2641,52.3915 40.5,55.5C 39.7326,54.828 39.0659,53.9947 38.5,53C 37.8333,52.3333 37.1667,52.3333 36.5,53C 37.9669,55.3785 38.9669,57.8785 39.5,60.5C 40.3403,62.8525 41.6736,64.8525 43.5,66.5C 43.5,68.5 44.5,69.5 46.5,69.5C 47.9142,71.0542 49.5808,72.3875 51.5,73.5C 48.9662,80.4281 48.9662,87.4281 51.5,94.5C 51.5,95.5 51.5,96.5 51.5,97.5C 50.9,100.298 49.9,102.965 48.5,105.5C 57.0829,117.623 68.7495,124.29 83.5,125.5C 83.8396,129.131 83.0063,132.464 81,135.5C 75.635,139.019 70.635,143.019 66,147.5C 63.6072,150.952 61.7739,154.619 60.5,158.5C 58.78,156.342 57.9467,153.675 58,150.5C 56.6721,145.444 53.6721,143.444 49,144.5C 46.0505,141.855 43.2171,141.855 40.5,144.5C 40.5,145.167 40.1667,145.5 39.5,145.5C 36.7026,145.967 35.3692,147.633 35.5,150.5C 34.3143,151.705 34.3143,153.039 35.5,154.5C 33.9519,154.821 33.2852,155.821 33.5,157.5C 33.2594,159.898 33.9261,161.898 35.5,163.5C 39.1054,170.668 43.4387,177.335 48.5,183.5C 38.1667,183.5 27.8333,183.5 17.5,183.5C 9.51911,180.351 4.01911,174.684 1,166.5C 0.333333,125.833 0.333333,85.1667 1,44.5C 3.35126,37.4808 7.85126,32.3141 14.5,29C 25.0885,27.5712 35.7551,27.0712 46.5,27.5 Z"/></g>
<g><path style="opacity:1" fill="#aed1fb" d="M 58.5,27.5 C 83.8333,27.5 109.167,27.5 134.5,27.5C 134.33,28.8221 134.663,29.9887 135.5,31C 137.473,31.4955 139.473,31.6621 141.5,31.5C 141.5,32.1667 141.5,32.8333 141.5,33.5C 138.252,33.2382 135.252,33.2382 132.5,33.5C 130.463,34.8465 128.463,36.1798 126.5,37.5C 127.871,41.0583 127.204,41.3916 124.5,38.5C 123.893,38.6236 123.56,38.9569 123.5,39.5C 122.406,40.5817 121.073,41.2483 119.5,41.5C 116.885,40.7308 114.219,40.3975 111.5,40.5C 109.958,39.6993 108.292,39.366 106.5,39.5C 105.833,39.5 105.167,39.5 104.5,39.5C 100.785,39.423 97.1185,39.7564 93.5,40.5C 92.2905,40.9321 91.2905,41.5987 90.5,42.5C 89.5,42.5 88.5,42.5 87.5,42.5C 84.4541,42.9676 81.6208,43.9676 79,45.5C 77.2355,44.3679 75.4021,43.3679 73.5,42.5C 71.5786,41.6373 69.5786,40.9707 67.5,40.5C 66.609,39.8902 65.609,39.5569 64.5,39.5C 64.2172,38.7109 63.7172,38.0442 63,37.5C 60.8425,39.4944 58.3425,40.8277 55.5,41.5C 55.5,40.1667 55.5,38.8333 55.5,37.5C 62.2597,36.0698 63.2597,32.7365 58.5,27.5 Z"/></g>
<g><path style="opacity:0.999" fill="#acd2fe" d="M 156.5,27.5 C 220.834,27.3333 285.168,27.5 349.5,28C 357.684,31.0191 363.351,36.5191 366.5,44.5C 366.5,85.1667 366.5,125.833 366.5,166.5C 363.167,174.5 357.5,180.167 349.5,183.5C 296.167,183.5 242.833,183.5 189.5,183.5C 186.251,177.583 181.918,172.583 176.5,168.5C 174.638,164.458 172.138,160.792 169,157.5C 168.617,158.056 168.117,158.389 167.5,158.5C 167.771,156.62 167.104,155.287 165.5,154.5C 160.32,146.063 152.987,140.229 143.5,137C 138.757,135.53 134.091,133.864 129.5,132C 128.512,129.833 127.179,128 125.5,126.5C 136.341,119.508 146.508,111.508 156,102.5C 157.966,99.399 159.8,96.2324 161.5,93C 160.368,91.2355 159.368,89.4021 158.5,87.5C 158.5,86.5 158.5,85.5 158.5,84.5C 158.436,77.1131 156.769,70.1131 153.5,63.5C 154.524,62.1482 155.524,60.8149 156.5,59.5C 158.25,58.3406 159.25,56.674 159.5,54.5C 164.09,45.012 163.09,36.012 156.5,27.5 Z"/></g>
<g><path style="opacity:1" fill="#fbfbfc" d="M 55.5,37.5 C 55.5,38.8333 55.5,40.1667 55.5,41.5C 55.5,42.8333 55.5,44.1667 55.5,45.5C 55.3354,48.5184 55.502,51.5184 56,54.5C 56.7908,56.6036 58.2908,57.937 60.5,58.5C 58.9733,60.1933 57.6399,62.0266 56.5,64C 53.0484,61.6366 49.0484,60.3032 44.5,60C 42.9297,58.6032 41.5964,57.1032 40.5,55.5C 40.2641,52.3915 40.5975,49.3915 41.5,46.5C 41.5,45.5 41.5,44.5 41.5,43.5C 42.1667,42.1667 42.8333,40.8333 43.5,39.5C 44.3606,37.6137 45.3606,35.7804 46.5,34C 51.3198,31.1728 54.3198,32.3395 55.5,37.5 Z"/></g>
<g><path style="opacity:1" fill="#605f73" d="M 141.5,33.5 C 141.5,33.8333 141.5,34.1667 141.5,34.5C 141.38,35.5862 140.713,36.2528 139.5,36.5C 136.824,36.0606 134.491,35.0606 132.5,33.5C 135.252,33.2382 138.252,33.2382 141.5,33.5 Z"/></g>
<g><path style="opacity:1" fill="#c5c6d1" d="M 155.5,25.5 C 156.338,25.8417 156.672,26.5084 156.5,27.5C 163.09,36.012 164.09,45.012 159.5,54.5C 156.765,52.8646 154.765,53.5313 153.5,56.5C 154.188,57.8549 155.188,58.8549 156.5,59.5C 155.524,60.8149 154.524,62.1482 153.5,63.5C 156.769,70.1131 158.436,77.1131 158.5,84.5C 156.143,84.6633 153.81,84.4966 151.5,84C 147.812,82.4873 144.145,80.9873 140.5,79.5C 131.433,72.8412 124.599,74.8412 120,85.5C 118.566,89.4065 118.233,93.4065 119,97.5C 119.186,94.9644 119.686,92.631 120.5,90.5C 121.167,90.5 121.5,90.8333 121.5,91.5C 120.527,93.9479 120.194,96.6146 120.5,99.5C 122.167,99.5 123.833,99.5 125.5,99.5C 126.919,100.451 128.585,100.784 130.5,100.5C 128.369,101.314 126.036,101.814 123.5,102C 129.626,106.787 131.793,112.954 130,120.5C 127.152,123.387 123.985,124.054 120.5,122.5C 118.212,121.926 116.045,120.926 114,119.5C 112.188,120.977 110.355,122.31 108.5,123.5C 97.4217,128.268 92.9217,124.601 95,112.5C 96.4064,108.969 97.2397,105.302 97.5,101.5C 98.1667,101.5 98.8333,101.5 99.5,101.5C 99.7871,91.8719 95.4538,84.7052 86.5,80C 81.7426,79.1902 77.0759,79.5236 72.5,81C 68.2002,84.2981 64.2002,87.9648 60.5,92C 57.7935,93.9076 54.7935,94.741 51.5,94.5C 48.9662,87.4281 48.9662,80.4281 51.5,73.5C 49.5808,72.3875 47.9142,71.0542 46.5,69.5C 50.4757,67.5016 50.309,65.5016 46,63.5C 44.6898,64.1301 43.8565,65.1301 43.5,66.5C 41.6736,64.8525 40.3403,62.8525 39.5,60.5C 40.4511,59.0813 40.7845,57.4147 40.5,55.5C 41.5964,57.1032 42.9297,58.6032 44.5,60C 49.0484,60.3032 53.0484,61.6366 56.5,64C 57.6399,62.0266 58.9733,60.1933 60.5,58.5C 58.2908,57.937 56.7908,56.6036 56,54.5C 55.502,51.5184 55.3354,48.5184 55.5,45.5C 58.9873,44.2546 61.9873,42.2546 64.5,39.5C 65.609,39.5569 66.609,39.8902 67.5,40.5C 63.3286,43.3462 63.6619,45.6795 68.5,47.5C 70.1347,46.9537 71.8014,46.6204 73.5,46.5C 73.5,45.1667 73.5,43.8333 73.5,42.5C 75.4021,43.3679 77.2355,44.3679 79,45.5C 81.6208,43.9676 84.4541,42.9676 87.5,42.5C 87.3932,46.2865 88.8932,49.2865 92,51.5C 92.596,48.3137 92.096,45.3137 90.5,42.5C 91.2905,41.5987 92.2905,40.9321 93.5,40.5C 94.0915,45.4416 95.5915,50.1082 98,54.5C 103.4,60.1588 106.234,58.8255 106.5,50.5C 105.989,46.7928 105.322,43.1262 104.5,39.5C 105.167,39.5 105.833,39.5 106.5,39.5C 106.933,42.1656 107.433,44.8323 108,47.5C 108.71,48.9733 109.876,49.6399 111.5,49.5C 111.5,46.5 111.5,43.5 111.5,40.5C 114.219,40.3975 116.885,40.7308 119.5,41.5C 121.073,41.2483 122.406,40.5817 123.5,39.5C 124.635,41.2132 126.302,41.8799 128.5,41.5C 128.843,39.5168 128.176,38.1834 126.5,37.5C 128.463,36.1798 130.463,34.8465 132.5,33.5C 134.491,35.0606 136.824,36.0606 139.5,36.5C 140.713,36.2528 141.38,35.5862 141.5,34.5C 142.864,37.7724 143.864,41.2724 144.5,45C 144.297,47.4059 143.297,49.4059 141.5,51C 143.609,52.1411 145.442,53.6411 147,55.5C 149.626,52.7692 152.793,50.9358 156.5,50C 159.993,41.9408 158.66,34.7742 152.5,28.5C 153.728,27.6935 154.728,26.6935 155.5,25.5 Z"/></g>
<g><path style="opacity:1" fill="#5a596e" d="M 64.5,39.5 C 61.9873,42.2546 58.9873,44.2546 55.5,45.5C 55.5,44.1667 55.5,42.8333 55.5,41.5C 58.3425,40.8277 60.8425,39.4944 63,37.5C 63.7172,38.0442 64.2172,38.7109 64.5,39.5 Z"/></g>
<g><path style="opacity:1" fill="#515066" d="M 104.5,39.5 C 105.322,43.1262 105.989,46.7928 106.5,50.5C 106.234,58.8255 103.4,60.1588 98,54.5C 95.5915,50.1082 94.0915,45.4416 93.5,40.5C 97.1185,39.7564 100.785,39.423 104.5,39.5 Z"/></g>
<g><path style="opacity:1" fill="#535368" d="M 106.5,39.5 C 108.292,39.366 109.958,39.6993 111.5,40.5C 111.5,43.5 111.5,46.5 111.5,49.5C 109.876,49.6399 108.71,48.9733 108,47.5C 107.433,44.8323 106.933,42.1656 106.5,39.5 Z"/></g>
<g><path style="opacity:1" fill="#606074" d="M 126.5,37.5 C 128.176,38.1834 128.843,39.5168 128.5,41.5C 126.302,41.8799 124.635,41.2132 123.5,39.5C 123.56,38.9569 123.893,38.6236 124.5,38.5C 127.204,41.3916 127.871,41.0583 126.5,37.5 Z"/></g>
<g><path style="opacity:1" fill="#4e4e63" d="M 87.5,42.5 C 88.5,42.5 89.5,42.5 90.5,42.5C 92.096,45.3137 92.596,48.3137 92,51.5C 88.8932,49.2865 87.3932,46.2865 87.5,42.5 Z"/></g>
<g><path style="opacity:1" fill="#57576c" d="M 41.5,43.5 C 41.5,44.5 41.5,45.5 41.5,46.5C 39.6536,46.7778 38.3202,46.1112 37.5,44.5C 38.6888,43.5713 40.0222,43.238 41.5,43.5 Z"/></g>
<g><path style="opacity:1" fill="#616176" d="M 67.5,40.5 C 69.5786,40.9707 71.5786,41.6373 73.5,42.5C 73.5,43.8333 73.5,45.1667 73.5,46.5C 71.8014,46.6204 70.1347,46.9537 68.5,47.5C 63.6619,45.6795 63.3286,43.3462 67.5,40.5 Z"/></g>
<g><path style="opacity:1" fill="#c4c4d0" d="M 66.5,42.5 C 68.288,42.2148 69.9547,42.5481 71.5,43.5C 69.0387,46.4227 67.3721,46.0894 66.5,42.5 Z"/></g>
<g><path style="opacity:1" fill="#6a697d" d="M 137.5,42.5 C 140.47,42.7458 141.803,44.4124 141.5,47.5C 137.424,47.7061 136.091,46.0394 137.5,42.5 Z"/></g>
<g><path style="opacity:1" fill="#535268" d="M 56.5,47.5 C 57.8589,48.0065 58.8589,49.0065 59.5,50.5C 61.0046,47.8694 61.6713,48.2027 61.5,51.5C 59.8333,51.5 58.1667,51.5 56.5,51.5C 56.5,50.1667 56.5,48.8333 56.5,47.5 Z"/></g>
<g><path style="opacity:1" fill="#4d4c62" d="M 92.5,54.5 C 94.337,54.6395 94.6704,55.3061 93.5,56.5C 92.7025,56.0431 92.3691,55.3764 92.5,54.5 Z"/></g>
<g><path style="opacity:1" fill="#646378" d="M 40.5,55.5 C 40.7845,57.4147 40.4511,59.0813 39.5,60.5C 38.9669,57.8785 37.9669,55.3785 36.5,53C 37.1667,52.3333 37.8333,52.3333 38.5,53C 39.0659,53.9947 39.7326,54.828 40.5,55.5 Z"/></g>
<g><path style="opacity:1" fill="#707084" d="M 159.5,54.5 C 159.25,56.674 158.25,58.3406 156.5,59.5C 155.188,58.8549 154.188,57.8549 153.5,56.5C 154.765,53.5313 156.765,52.8646 159.5,54.5 Z"/></g>
<g><path style="opacity:1" fill="#858597" d="M 46.5,69.5 C 44.5,69.5 43.5,68.5 43.5,66.5C 43.8565,65.1301 44.6898,64.1301 46,63.5C 50.309,65.5016 50.4757,67.5016 46.5,69.5 Z"/></g>
<g><path style="opacity:1" fill="#d0d3f3" d="M 140.5,79.5 C 141.306,80.7281 142.306,81.7281 143.5,82.5C 143.167,82.5 142.833,82.5 142.5,82.5C 141.475,85.9736 140.808,89.6403 140.5,93.5C 136.528,97.9834 131.528,99.9834 125.5,99.5C 123.833,99.5 122.167,99.5 120.5,99.5C 120.194,96.6146 120.527,93.9479 121.5,91.5C 123.929,94.9153 126.762,95.2486 130,92.5C 133.028,87.4865 133.194,82.4865 130.5,77.5C 130.917,76.8761 131.584,76.5427 132.5,76.5C 135.183,77.5103 137.849,78.5103 140.5,79.5 Z"/></g>
<g><path style="opacity:1" fill="#313230" d="M 130.5,77.5 C 133.194,82.4865 133.028,87.4865 130,92.5C 126.762,95.2486 123.929,94.9153 121.5,91.5C 121.5,90.8333 121.167,90.5 120.5,90.5C 120.887,83.7919 124.221,79.4586 130.5,77.5 Z"/></g>
<g><path style="opacity:1" fill="#57576c" d="M 99.5,101.5 C 98.6766,93.0382 94.6766,86.7049 87.5,82.5C 82.469,79.5507 77.8023,79.884 73.5,83.5C 70.2442,84.0052 67.5775,86.0052 65.5,89.5C 62.3472,94.745 57.6806,97.4116 51.5,97.5C 51.5,96.5 51.5,95.5 51.5,94.5C 54.7935,94.741 57.7935,93.9076 60.5,92C 64.2002,87.9648 68.2002,84.2981 72.5,81C 77.0759,79.5236 81.7426,79.1902 86.5,80C 95.4538,84.7052 99.7871,91.8719 99.5,101.5 Z"/></g>
<g><path style="opacity:1" fill="#2f302e" d="M 87.5,82.5 C 89.1084,87.1803 88.7751,91.6803 86.5,96C 76.6868,98.0275 72.3534,93.8608 73.5,83.5C 77.8023,79.884 82.469,79.5507 87.5,82.5 Z"/></g>
<g><path style="opacity:1" fill="#cbceed" d="M 73.5,83.5 C 72.3534,93.8608 76.6868,98.0275 86.5,96C 88.7751,91.6803 89.1084,87.1803 87.5,82.5C 94.6766,86.7049 98.6766,93.0382 99.5,101.5C 98.8333,101.5 98.1667,101.5 97.5,101.5C 95.8333,101.5 94.1667,101.5 92.5,101.5C 86.848,102.688 81.1814,102.688 75.5,101.5C 74.1667,99.5 72.5,97.8333 70.5,96.5C 69.0537,93.9136 67.387,91.5803 65.5,89.5C 67.5775,86.0052 70.2442,84.0052 73.5,83.5 Z"/></g>
<g><path style="opacity:1" fill="#5b5c71" d="M 140.5,79.5 C 137.849,78.5103 135.183,77.5103 132.5,76.5C 131.584,76.5427 130.917,76.8761 130.5,77.5C 124.221,79.4586 120.887,83.7919 120.5,90.5C 119.686,92.631 119.186,94.9644 119,97.5C 118.233,93.4065 118.566,89.4065 120,85.5C 124.599,74.8412 131.433,72.8412 140.5,79.5 Z"/></g>
<g><path style="opacity:1" fill="#616175" d="M 140.5,79.5 C 144.145,80.9873 147.812,82.4873 151.5,84C 153.81,84.4966 156.143,84.6633 158.5,84.5C 158.5,85.5 158.5,86.5 158.5,87.5C 152.993,87.22 147.993,85.5534 143.5,82.5C 142.306,81.7281 141.306,80.7281 140.5,79.5 Z"/></g>
<g><path style="opacity:1" fill="#797a90" d="M 142.5,82.5 C 142.884,86.4885 142.217,90.1552 140.5,93.5C 140.808,89.6403 141.475,85.9736 142.5,82.5 Z"/></g>
<g><path style="opacity:1" fill="#fcfcfd" d="M 142.5,82.5 C 142.833,82.5 143.167,82.5 143.5,82.5C 147.993,85.5534 152.993,87.22 158.5,87.5C 159.368,89.4021 160.368,91.2355 161.5,93C 159.8,96.2324 157.966,99.399 156,102.5C 146.508,111.508 136.341,119.508 125.5,126.5C 111.403,130.695 97.4028,130.362 83.5,125.5C 68.7495,124.29 57.0829,117.623 48.5,105.5C 49.9,102.965 50.9,100.298 51.5,97.5C 57.6806,97.4116 62.3472,94.745 65.5,89.5C 67.387,91.5803 69.0537,93.9136 70.5,96.5C 71.1667,99.1667 72.8333,100.833 75.5,101.5C 75.9175,102.222 76.5842,102.722 77.5,103C 81.8333,103.667 86.1667,103.667 90.5,103C 91.4158,102.722 92.0825,102.222 92.5,101.5C 94.1667,101.5 95.8333,101.5 97.5,101.5C 97.2397,105.302 96.4064,108.969 95,112.5C 92.9217,124.601 97.4217,128.268 108.5,123.5C 112.452,122.728 116.452,122.395 120.5,122.5C 123.985,124.054 127.152,123.387 130,120.5C 131.793,112.954 129.626,106.787 123.5,102C 126.036,101.814 128.369,101.314 130.5,100.5C 135.517,100.471 138.851,98.1381 140.5,93.5C 142.217,90.1552 142.884,86.4885 142.5,82.5 Z"/></g>
<g><path style="opacity:1" fill="#68697f" d="M 140.5,93.5 C 138.851,98.1381 135.517,100.471 130.5,100.5C 128.585,100.784 126.919,100.451 125.5,99.5C 131.528,99.9834 136.528,97.9834 140.5,93.5 Z"/></g>
<g><path style="opacity:1" fill="#0b0d10" d="M 321.5,95.5 C 322.833,95.5 324.167,95.5 325.5,95.5C 325.617,97.4835 324.95,99.1502 323.5,100.5C 318.933,101.009 315.267,103.009 312.5,106.5C 315.665,106.551 318.998,106.718 322.5,107C 328.18,111.568 329.013,117.068 325,123.5C 318.563,128.205 313.23,127.205 309,120.5C 308.333,115.833 308.333,111.167 309,106.5C 310.858,101.311 314.524,98.3107 320,97.5C 321.03,97.1639 321.53,96.4972 321.5,95.5 Z"/></g>
<g><path style="opacity:1" fill="#0c0e11" d="M 206.5,97.5 C 214.611,95.7097 219.611,98.7097 221.5,106.5C 220.127,106.657 218.793,106.49 217.5,106C 215.437,101.782 212.104,100.448 207.5,102C 205.039,104.827 204.039,108.16 204.5,112C 203.693,119.815 207.027,123.149 214.5,122C 215.87,120.559 216.87,118.892 217.5,117C 219.259,116.202 220.926,116.369 222.5,117.5C 218.68,126.779 212.347,128.945 203.5,124C 199.734,118.416 198.568,112.249 200,105.5C 201.305,102.039 203.471,99.372 206.5,97.5 Z"/></g>
<g><path style="opacity:1" fill="#7c7d93" d="M 70.5,96.5 C 72.5,97.8333 74.1667,99.5 75.5,101.5C 72.8333,100.833 71.1667,99.1667 70.5,96.5 Z"/></g>
<g><path style="opacity:1" fill="#77778d" d="M 75.5,101.5 C 81.1814,102.688 86.848,102.688 92.5,101.5C 92.0825,102.222 91.4158,102.722 90.5,103C 86.1667,103.667 81.8333,103.667 77.5,103C 76.5842,102.722 75.9175,102.222 75.5,101.5 Z"/></g>
<g><path style="opacity:1" fill="#415061" d="M 246.5,105.5 C 246.5,105.167 246.5,104.833 246.5,104.5C 251.167,104.5 255.833,104.5 260.5,104.5C 260.768,106.099 260.434,107.432 259.5,108.5C 259.5,107.5 259.5,106.5 259.5,105.5C 255.167,105.5 250.833,105.5 246.5,105.5 Z"/></g>
<g><path style="opacity:1" fill="#07080a" d="M 269.5,125.5 C 269.44,124.957 269.107,124.624 268.5,124.5C 267.516,127.428 267.183,130.428 267.5,133.5C 266.167,133.5 264.833,133.5 263.5,133.5C 263.5,124.167 263.5,114.833 263.5,105.5C 264.833,105.5 266.167,105.5 267.5,105.5C 267.435,105.938 267.601,106.272 268,106.5C 276.205,102.998 280.705,105.832 281.5,115C 281.491,123.529 277.491,127.029 269.5,125.5 Z"/></g>
<g><path style="opacity:1" fill="#0e1113" d="M 290.5,104.5 C 302.434,104.351 306.6,110.017 303,121.5C 299.634,126.609 295.134,127.776 289.5,125C 282.602,117.793 282.936,110.959 290.5,104.5 Z"/></g>
<g><path style="opacity:1" fill="#0e1113" d="M 224.5,104.5 C 226.167,104.5 227.833,104.5 229.5,104.5C 230.309,109.094 231.809,113.427 234,117.5C 235.333,113.5 236.667,109.5 238,105.5C 239.356,104.62 240.856,104.286 242.5,104.5C 240.036,114.058 236.869,123.392 233,132.5C 230.772,134.113 228.272,134.78 225.5,134.5C 225.5,133.167 225.5,131.833 225.5,130.5C 229.522,130.982 231.522,129.148 231.5,125C 228.859,118.243 226.526,111.41 224.5,104.5 Z"/></g>
<g><path style="opacity:1" fill="#7c98b7" d="M 246.5,104.5 C 246.5,104.833 246.5,105.167 246.5,105.5C 246.5,112.167 246.5,118.833 246.5,125.5C 247.833,125.5 249.167,125.5 250.5,125.5C 249.081,126.451 247.415,126.784 245.5,126.5C 245.175,118.981 245.508,111.648 246.5,104.5 Z"/></g>
<g><path style="opacity:1" fill="#000000" d="M 246.5,105.5 C 250.833,105.5 255.167,105.5 259.5,105.5C 259.5,106.5 259.5,107.5 259.5,108.5C 256.5,108.5 253.5,108.5 250.5,108.5C 250.5,114.167 250.5,119.833 250.5,125.5C 249.167,125.5 247.833,125.5 246.5,125.5C 246.5,118.833 246.5,112.167 246.5,105.5 Z"/></g>
<g><path style="opacity:1" fill="#697f9a" d="M 267.5,105.5 C 266.167,105.5 264.833,105.5 263.5,105.5C 263.5,114.833 263.5,124.167 263.5,133.5C 264.833,133.5 266.167,133.5 267.5,133.5C 267.183,130.428 267.516,127.428 268.5,124.5C 269.107,124.624 269.44,124.957 269.5,125.5C 268.523,128.287 268.19,131.287 268.5,134.5C 266.5,134.5 264.5,134.5 262.5,134.5C 262.5,124.5 262.5,114.5 262.5,104.5C 264.415,104.216 266.081,104.549 267.5,105.5 Z"/></g>
<g><path style="opacity:1" fill="#515268" d="M 110.5,106.5 C 113.247,106.187 115.914,106.52 118.5,107.5C 115.109,112.23 111.109,112.73 106.5,109C 108.066,108.392 109.4,107.558 110.5,106.5 Z"/></g>
<g><path style="opacity:1" fill="#a6caf4" d="M 269.5,108.5 C 272.044,108.104 274.211,108.771 276,110.5C 276.667,113.833 276.667,117.167 276,120.5C 273.333,123.167 270.667,123.167 268,120.5C 266.994,116.198 267.494,112.198 269.5,108.5 Z"/></g>
<g><path style="opacity:1" fill="#a6caf5" d="M 292.5,108.5 C 295.044,108.104 297.211,108.771 299,110.5C 299.956,114.572 299.456,118.405 297.5,122C 290.181,122.315 287.681,118.815 290,111.5C 290.698,110.309 291.531,109.309 292.5,108.5 Z"/></g>
<g><path style="opacity:1" fill="#a3c7f1" d="M 315.5,109.5 C 321.867,109.872 324.034,113.206 322,119.5C 319.182,123.424 316.182,123.424 313,119.5C 311.861,115.579 312.695,112.246 315.5,109.5 Z"/></g>
<g><path style="opacity:1" fill="#6f7083" d="M 120.5,122.5 C 116.452,122.395 112.452,122.728 108.5,123.5C 110.355,122.31 112.188,120.977 114,119.5C 116.045,120.926 118.212,121.926 120.5,122.5 Z"/></g>
<g><path style="opacity:1" fill="#93acdf" d="M 83.5,125.5 C 97.4028,130.362 111.403,130.695 125.5,126.5C 127.179,128 128.512,129.833 129.5,132C 134.091,133.864 138.757,135.53 143.5,137C 152.987,140.229 160.32,146.063 165.5,154.5C 165.586,155.496 165.252,156.329 164.5,157C 160.278,158.941 156.278,161.108 152.5,163.5C 150.5,163.5 148.5,163.5 146.5,163.5C 145.213,159.043 142.88,155.21 139.5,152C 135.317,149.743 130.984,147.743 126.5,146C 122.5,145.667 118.5,145.333 114.5,145C 112.107,140.506 110.94,135.673 111,130.5C 110.503,133.146 110.336,135.813 110.5,138.5C 103.099,138.32 95.7657,137.82 88.5,137C 95.6863,139.028 103.02,139.861 110.5,139.5C 110.877,141.258 111.544,142.925 112.5,144.5C 98.8907,145.525 87.3907,150.859 78,160.5C 75.7743,162.285 74.6076,164.618 74.5,167.5C 71.1714,167.002 68.0047,166.002 65,164.5C 64.5172,165.448 64.3505,166.448 64.5,167.5C 64.1667,167.5 63.8333,167.5 63.5,167.5C 64.0762,163.888 63.0762,160.888 60.5,158.5C 61.7739,154.619 63.6072,150.952 66,147.5C 70.635,143.019 75.635,139.019 81,135.5C 83.0063,132.464 83.8396,129.131 83.5,125.5 Z"/></g>
<g><path style="opacity:1" fill="#6a7597" d="M 110.5,138.5 C 110.5,138.833 110.5,139.167 110.5,139.5C 103.02,139.861 95.6863,139.028 88.5,137C 95.7657,137.82 103.099,138.32 110.5,138.5 Z"/></g>
<g><path style="opacity:1" fill="#fcfafa" d="M 60.5,158.5 C 63.0762,160.888 64.0762,163.888 63.5,167.5C 63.8145,173.106 65.1479,178.439 67.5,183.5C 61.1667,183.5 54.8333,183.5 48.5,183.5C 43.4387,177.335 39.1054,170.668 35.5,163.5C 38.2961,160.713 37.6295,158.713 33.5,157.5C 33.2852,155.821 33.9519,154.821 35.5,154.5C 35.8656,155.695 36.699,156.361 38,156.5C 41.2299,156.201 43.8966,154.868 46,152.5C 47.4443,154.155 49.2776,154.822 51.5,154.5C 52.0001,150.836 50.8334,147.836 48,145.5C 46.2602,146.716 45.2602,148.382 45,150.5C 44.1376,148.913 43.4709,147.246 43,145.5C 42.3292,144.748 41.4959,144.414 40.5,144.5C 43.2171,141.855 46.0505,141.855 49,144.5C 53.6721,143.444 56.6721,145.444 58,150.5C 57.9467,153.675 58.78,156.342 60.5,158.5 Z"/></g>
<g><path style="opacity:1" fill="#edb1b1" d="M 40.5,144.5 C 41.4959,144.414 42.3292,144.748 43,145.5C 43.4709,147.246 44.1376,148.913 45,150.5C 45.2602,148.382 46.2602,146.716 48,145.5C 50.8334,147.836 52.0001,150.836 51.5,154.5C 49.2776,154.822 47.4443,154.155 46,152.5C 43.8966,154.868 41.2299,156.201 38,156.5C 36.699,156.361 35.8656,155.695 35.5,154.5C 34.3143,153.039 34.3143,151.705 35.5,150.5C 37.1132,150.944 38.2798,151.944 39,153.5C 39.4974,150.854 39.6641,148.187 39.5,145.5C 40.1667,145.5 40.5,145.167 40.5,144.5 Z"/></g>
<g><path style="opacity:1" fill="#494f9b" d="M 146.5,163.5 C 144.627,169.924 143.96,176.591 144.5,183.5C 141.167,183.5 137.833,183.5 134.5,183.5C 131.289,176.884 125.956,173.217 118.5,172.5C 118.5,176.167 118.5,179.833 118.5,183.5C 118.167,183.5 117.833,183.5 117.5,183.5C 117.5,179.833 117.5,176.167 117.5,172.5C 108.281,172.273 101.281,175.939 96.5,183.5C 89.8333,183.5 83.1667,183.5 76.5,183.5C 78.0233,173.72 74.0233,168.386 64.5,167.5C 64.3505,166.448 64.5172,165.448 65,164.5C 68.0047,166.002 71.1714,167.002 74.5,167.5C 74.6076,164.618 75.7743,162.285 78,160.5C 87.3907,150.859 98.8907,145.525 112.5,144.5C 111.544,142.925 110.877,141.258 110.5,139.5C 110.5,139.167 110.5,138.833 110.5,138.5C 110.336,135.813 110.503,133.146 111,130.5C 110.94,135.673 112.107,140.506 114.5,145C 118.5,145.333 122.5,145.667 126.5,146C 130.984,147.743 135.317,149.743 139.5,152C 142.88,155.21 145.213,159.043 146.5,163.5 Z"/></g>
<g><path style="opacity:1" fill="#f8f4f6" d="M 39.5,145.5 C 39.6641,148.187 39.4974,150.854 39,153.5C 38.2798,151.944 37.1132,150.944 35.5,150.5C 35.3692,147.633 36.7026,145.967 39.5,145.5 Z"/></g>
<g><path style="opacity:1" fill="#4c5299" d="M 165.5,154.5 C 167.104,155.287 167.771,156.62 167.5,158.5C 166.027,160.395 164.36,162.061 162.5,163.5C 159.167,163.5 155.833,163.5 152.5,163.5C 156.278,161.108 160.278,158.941 164.5,157C 165.252,156.329 165.586,155.496 165.5,154.5 Z"/></g>
<g><path style="opacity:1" fill="#ecb0b1" d="M 33.5,157.5 C 37.6295,158.713 38.2961,160.713 35.5,163.5C 33.9261,161.898 33.2594,159.898 33.5,157.5 Z"/></g>
<g><path style="opacity:1" fill="#edb1b1" d="M 42.5,156.5 C 45.0087,157.745 47.6754,158.745 50.5,159.5C 51.6405,161.078 52.1405,162.744 52,164.5C 48.141,165.501 44.3077,166.335 40.5,167C 39.1955,166.196 38.5288,165.029 38.5,163.5C 40.1211,161.395 41.4544,159.062 42.5,156.5 Z"/></g>
<g><path style="opacity:1" fill="#bebfcd" d="M 176.5,168.5 C 175.833,168.5 175.167,168.5 174.5,168.5C 172.491,166.935 170.157,165.935 167.5,165.5C 166.07,164.463 164.403,163.796 162.5,163.5C 164.36,162.061 166.027,160.395 167.5,158.5C 168.117,158.389 168.617,158.056 169,157.5C 172.138,160.792 174.638,164.458 176.5,168.5 Z"/></g>
<g><path style="opacity:1" fill="#eeb2b2" d="M 56.5,160.5 C 59.9868,161.445 61.3201,163.778 60.5,167.5C 59.325,167.719 58.325,167.386 57.5,166.5C 56.6518,164.591 56.3184,162.591 56.5,160.5 Z"/></g>
<g><path style="opacity:1" fill="#373a59" d="M 146.5,163.5 C 148.5,163.5 150.5,163.5 152.5,163.5C 155.833,163.5 159.167,163.5 162.5,163.5C 164.403,163.796 166.07,164.463 167.5,165.5C 160.315,165.898 159.648,168.398 165.5,173C 163.277,173.652 162.11,175.152 162,177.5C 159.463,174.628 156.63,172.128 153.5,170C 148.502,168.67 146.336,170.504 147,175.5C 148.273,178.597 150.107,181.264 152.5,183.5C 149.833,183.5 147.167,183.5 144.5,183.5C 143.96,176.591 144.627,169.924 146.5,163.5 Z"/></g>
<g><path style="opacity:1" fill="#222331" d="M 167.5,165.5 C 170.157,165.935 172.491,166.935 174.5,168.5C 177.021,170.701 179.521,173.034 182,175.5C 183.128,177.345 183.628,179.345 183.5,181.5C 180.748,181.422 178.082,181.255 175.5,181C 176.571,181.852 177.571,182.685 178.5,183.5C 169.833,183.5 161.167,183.5 152.5,183.5C 150.107,181.264 148.273,178.597 147,175.5C 146.336,170.504 148.502,168.67 153.5,170C 156.63,172.128 159.463,174.628 162,177.5C 162.11,175.152 163.277,173.652 165.5,173C 159.648,168.398 160.315,165.898 167.5,165.5 Z"/></g>
<g><path style="opacity:1" fill="#91aade" d="M 117.5,183.5 C 110.5,183.5 103.5,183.5 96.5,183.5C 101.281,175.939 108.281,172.273 117.5,172.5C 117.5,176.167 117.5,179.833 117.5,183.5 Z"/></g>
<g><path style="opacity:1" fill="#90a9dd" d="M 134.5,183.5 C 129.167,183.5 123.833,183.5 118.5,183.5C 118.5,179.833 118.5,176.167 118.5,172.5C 125.956,173.217 131.289,176.884 134.5,183.5 Z"/></g>
<g><path style="opacity:1" fill="#383b59" d="M 174.5,168.5 C 175.167,168.5 175.833,168.5 176.5,168.5C 181.918,172.583 186.251,177.583 189.5,183.5C 185.833,183.5 182.167,183.5 178.5,183.5C 177.571,182.685 176.571,181.852 175.5,181C 178.082,181.255 180.748,181.422 183.5,181.5C 183.628,179.345 183.128,177.345 182,175.5C 179.521,173.034 177.021,170.701 174.5,168.5 Z"/></g>
<g><path style="opacity:1" fill="#b7b7c5" d="M 63.5,167.5 C 63.8333,167.5 64.1667,167.5 64.5,167.5C 74.0233,168.386 78.0233,173.72 76.5,183.5C 73.5,183.5 70.5,183.5 67.5,183.5C 65.1479,178.439 63.8145,173.106 63.5,167.5 Z"/></g>
</svg>
