<svg width="348" height="31" viewBox="0 0 348 31" fill="none" xmlns="http://www.w3.org/2000/svg">
<path d="M13.2786 6.41382C17.0309 6.41382 20.0726 9.60958 20.0726 13.5517C20.0726 15.1717 19.5589 16.6657 18.6933 17.8636L23.5055 22.9251C23.867 23.3055 23.8667 23.9217 23.5047 24.3016C23.1427 24.6814 22.556 24.681 22.1945 24.3008L17.383 19.2404C16.2427 20.1498 14.8206 20.6895 13.2786 20.6895C9.52636 20.6895 6.4845 17.4938 6.4845 13.5517C6.4845 9.60958 9.52636 6.41382 13.2786 6.41382ZM13.2786 8.3604C10.5497 8.3604 8.33741 10.6846 8.33741 13.5517C8.33741 16.4187 10.5497 18.7429 13.2786 18.7429C16.0075 18.7429 18.2197 16.4187 18.2197 13.5517C18.2197 10.6846 16.0075 8.3604 13.2786 8.3604Z" fill="#2787F5"/>
<path d="M348 30.677H0V30.9999H348V30.677Z" fill="#2787F5"/>
<path d="M338.25 17.5C340.628 17.5 342.637 19.0815 343.283 21.2502L346.5 21.25C347.328 21.25 348 21.9216 348 22.75C348 23.5784 347.328 24.25 346.5 24.25L343.282 24.2513C342.636 26.4192 340.628 28 338.25 28C335.872 28 333.864 26.4192 333.218 24.2513L316.5 24.25C315.672 24.25 315 23.5784 315 22.75C315 21.9216 315.672 21.25 316.5 21.25L333.217 21.2502C333.863 19.0815 335.872 17.5 338.25 17.5ZM338.25 20.125C336.8 20.125 335.625 21.3003 335.625 22.75C335.625 24.1997 336.8 25.375 338.25 25.375C339.7 25.375 340.875 24.1997 340.875 22.75C340.875 21.3003 339.7 20.125 338.25 20.125ZM326.25 4C328.628 4 330.637 5.5815 331.283 7.75024L346.5 7.75C347.328 7.75 348 8.42157 348 9.25C348 10.0784 347.328 10.75 346.5 10.75L331.282 10.7513C330.636 12.9192 328.628 14.5 326.25 14.5C323.872 14.5 321.864 12.9192 321.218 10.7513L316.5 10.75C315.672 10.75 315 10.0784 315 9.25C315 8.42157 315.672 7.75 316.5 7.75L321.217 7.75024C321.863 5.5815 323.872 4 326.25 4ZM326.25 6.625C324.8 6.625 323.625 7.80025 323.625 9.25C323.625 10.6997 324.8 11.875 326.25 11.875C327.7 11.875 328.875 10.6997 328.875 9.25C328.875 7.80025 327.7 6.625 326.25 6.625Z" fill="#2787F5"/>
</svg>
