<?xml version="1.0" standalone="no"?>
<!DOCTYPE svg PUBLIC "-//W3C//DTD SVG 20010904//EN"
 "http://www.w3.org/TR/2001/REC-SVG-20010904/DTD/svg10.dtd">
<svg version="1.0" xmlns="http://www.w3.org/2000/svg"
 width="30.000000pt" height="30.000000pt" viewBox="0 0 91.000000 91.000000"
 preserveAspectRatio="xMidYMid meet">

<g transform="translate(0.000000,91.000000) scale(0.100000,-0.100000)"
fill="rgb(39,135, 245)" stroke="none">
<path d="M141 900 c-73 -18 -126 -82 -136 -163 -4 -29 -5 -176 -3 -327 3 -237
5 -279 20 -306 21 -39 71 -82 106 -92 15 -4 166 -7 337 -7 274 0 314 2 341 17
39 21 82 71 92 106 9 35 9 619 0 654 -10 35 -53 85 -92 106 -27 15 -69 17
-331 19 -165 1 -315 -2 -334 -7z m440 -204 c47 -22 102 -78 126 -125 25 -51
25 -191 0 -242 -23 -47 -79 -103 -126 -126 -51 -25 -191 -25 -242 0 -48 24
-103 79 -125 126 -23 46 -30 157 -14 208 25 75 87 140 164 170 44 18 173 11
217 -11z"/>
<path d="M402 683 c-51 -10 -52 -89 -1 -165 16 -23 38 -58 50 -75 18 -28 27
-33 60 -33 36 0 38 2 45 36 10 55 -2 141 -28 192 -21 44 -26 47 -63 48 -22 1
-50 0 -63 -3z"/>
<path d="M560 667 c0 -2 7 -24 16 -48 9 -26 15 -77 15 -122 1 -66 3 -78 16
-73 8 3 21 6 28 6 17 0 45 60 45 97 0 31 -42 89 -90 123 -17 12 -30 19 -30 17z"/>
<path d="M284 608 c-22 -26 -45 -63 -51 -82 -11 -36 -11 -36 30 -61 39 -22
156 -59 164 -51 2 1 -11 20 -28 42 -45 56 -61 92 -68 148 l-6 50 -41 -46z"/>
<path d="M225 411 c9 -51 31 -94 65 -126 26 -25 32 -27 58 -16 35 14 77 57 86
86 5 18 -1 22 -55 32 -34 6 -84 23 -111 36 l-50 25 7 -37z"/>
<path d="M667 398 c-20 -15 -38 -71 -27 -87 8 -14 31 17 48 67 12 34 6 40 -21
20z"/>
<path d="M585 381 c-3 -6 -23 -44 -43 -85 -42 -83 -38 -93 27 -58 33 18 34 20
35 85 2 62 -4 81 -19 58z"/>
<path d="M466 348 c-8 -38 -18 -52 -64 -91 l-33 -27 27 -10 c15 -6 35 -9 43
-8 17 3 73 90 90 139 10 28 9 29 -23 29 -30 0 -34 -4 -40 -32z"/>
</g>
</svg>
