<?xml version="1.0" standalone="no"?>
<!DOCTYPE svg PUBLIC "-//W3C//DTD SVG 20010904//EN"
 "http://www.w3.org/TR/2001/REC-SVG-20010904/DTD/svg10.dtd">
<svg version="1.0" xmlns="http://www.w3.org/2000/svg"
 width="30.000000pt" height="30.000000pt" viewBox="0 0 91.000000 91.000000"
 preserveAspectRatio="xMidYMid meet">

<g transform="translate(0.000000,91.000000) scale(0.100000,-0.100000)"
fill="rgb(39,135, 245)" stroke="none">
<path d="M141 900 c-73 -18 -126 -82 -136 -163 -4 -29 -5 -176 -3 -327 3 -237
5 -279 20 -306 21 -39 71 -82 106 -92 15 -4 166 -7 337 -7 274 0 314 2 341 17
39 21 82 71 92 106 9 35 9 619 0 654 -10 35 -53 85 -92 106 -27 15 -69 17
-331 19 -165 1 -315 -2 -334 -7z m307 -285 c42 -27 228 -104 314 -129 65 -18
83 -41 79 -96 -3 -55 -10 -69 -44 -87 -55 -29 -641 -31 -688 -3 -18 12 -18
274 0 308 17 32 68 30 81 -2 21 -57 77 -60 137 -6 53 47 70 49 121 15z"/>
<path d="M140 571 c0 -20 6 -32 19 -36 11 -3 35 -16 53 -29 67 -45 89 -47 148
-15 32 18 68 29 91 29 29 0 37 4 33 14 -3 8 -13 12 -25 9 -13 -4 -19 0 -19 11
0 9 -6 13 -15 10 -22 -9 -38 5 -24 22 9 11 8 14 -3 14 -8 0 -33 -18 -57 -40
-30 -28 -52 -40 -72 -40 -38 0 -109 36 -109 55 0 7 -4 17 -10 20 -6 4 -10 -6
-10 -24z"/>
<path d="M515 520 c-3 -5 -1 -10 4 -10 6 0 11 5 11 10 0 6 -2 10 -4 10 -3 0
-8 -4 -11 -10z"/>
<path d="M560 509 c0 -5 9 -9 20 -9 11 0 20 2 20 4 0 2 -9 6 -20 9 -11 3 -20
1 -20 -4z"/>
<path d="M128 463 c-6 -62 6 -75 64 -71 l46 3 -12 35 c-8 25 -23 41 -52 58
l-42 22 -4 -47z"/>
<path d="M407 474 c-16 -9 -26 -18 -23 -21 3 -3 20 4 38 16 38 24 27 28 -15 5z"/>
<path d="M475 455 c-22 -13 -35 -24 -30 -24 6 0 28 11 50 24 22 14 36 25 30
25 -5 0 -28 -11 -50 -25z"/>
<path d="M625 468 c-22 -6 -56 -17 -75 -26 l-35 -15 33 -10 c27 -8 39 -7 62 6
16 10 49 17 79 17 52 0 69 14 29 23 -13 2 -30 7 -38 9 -8 3 -33 1 -55 -4z"/>
<path d="M271 417 c13 -30 32 -34 184 -41 110 -6 110 -5 -54 31 -62 13 -120
27 -128 30 -11 4 -12 1 -2 -20z"/>
<path d="M755 419 c-22 -4 -56 -8 -76 -8 -22 -1 -48 -10 -65 -23 l-28 -22 25
-7 c30 -8 124 -1 167 12 21 7 32 17 32 29 0 25 -8 28 -55 19z"/>
<path d="M130 344 c0 -8 17 -15 43 -18 80 -11 367 -14 373 -5 3 5 -2 9 -10 9
-8 0 -59 4 -113 10 -177 17 -293 19 -293 4z"/>
</g>
</svg>
