<?xml version="1.0" standalone="no"?>
<!DOCTYPE svg PUBLIC "-//W3C//DTD SVG 20010904//EN"
 "http://www.w3.org/TR/2001/REC-SVG-20010904/DTD/svg10.dtd">
<svg version="1.0" xmlns="http://www.w3.org/2000/svg"
 width="30.000000pt" height="30.000000pt" viewBox="0 0 91.000000 91.000000"
 preserveAspectRatio="xMidYMid meet">

<g transform="translate(0.000000,91.000000) scale(0.100000,-0.100000)"
fill="rgb(39,135, 245)" stroke="none">
<path d="M141 900 c-73 -18 -126 -82 -136 -163 -4 -29 -5 -176 -3 -327 3 -237
5 -279 20 -306 21 -39 71 -82 106 -92 15 -4 166 -7 337 -7 274 0 314 2 341 17
39 21 82 71 92 106 9 35 9 619 0 654 -10 35 -53 85 -92 106 -27 15 -69 17
-331 19 -165 1 -315 -2 -334 -7z m487 -142 c7 -7 22 -28 32 -47 20 -40 12 -81
-15 -81 -11 0 -15 -6 -11 -17 3 -10 12 -57 22 -105 16 -85 17 -86 50 -92 73
-14 100 -117 46 -178 -25 -27 -36 -31 -77 -31 -41 0 -52 4 -77 31 -36 41 -39
105 -6 148 l22 29 -23 -20 c-30 -26 -51 -67 -51 -100 l0 -25 -117 0 -117 0
-26 -32 c-21 -25 -35 -32 -63 -32 -51 0 -77 27 -77 79 0 46 18 69 63 80 18 5
36 2 53 -10 15 -9 24 -13 20 -7 -3 5 1 15 8 21 12 10 19 6 37 -18 22 -30 26
-31 99 -31 l76 0 18 40 c16 36 48 70 91 95 16 10 17 15 0 90 -24 114 -24 113
-48 117 -12 2 -23 10 -25 19 -2 12 8 18 38 23 44 7 46 26 2 26 -37 0 -56 14
-48 35 5 14 14 16 48 11 23 -4 48 -12 56 -18z"/>
<path d="M688 339 c4 -35 2 -40 -14 -37 -10 2 -20 12 -22 23 -7 46 -13 51 -28
31 -34 -47 -5 -106 53 -106 57 0 84 69 43 110 -29 29 -36 25 -32 -21z"/>
<path d="M196 317 c-26 -19 -18 -61 13 -65 13 -2 28 1 34 7 8 8 3 11 -16 11
-32 0 -38 29 -7 37 11 3 17 9 14 14 -7 12 -17 11 -38 -4z"/>
</g>
</svg>
