<?xml version="1.0" standalone="no"?>
<!DOCTYPE svg PUBLIC "-//W3C//DTD SVG 20010904//EN"
 "http://www.w3.org/TR/2001/REC-SVG-20010904/DTD/svg10.dtd">
<svg version="1.0" xmlns="http://www.w3.org/2000/svg"
 width="30.000000pt" height="30.000000pt" viewBox="0 0 91.000000 91.000000"
 preserveAspectRatio="xMidYMid meet">

<g transform="translate(0.000000,91.000000) scale(0.100000,-0.100000)"
fill="rgb(39,135, 245)" stroke="none">
<path d="M141 900 c-73 -18 -126 -82 -136 -163 -4 -29 -5 -176 -3 -327 3 -237
5 -279 20 -306 21 -39 71 -82 106 -92 15 -4 166 -7 337 -7 274 0 314 2 341 17
39 21 82 71 92 106 9 35 9 619 0 654 -10 35 -53 85 -92 106 -27 15 -69 17
-331 19 -165 1 -315 -2 -334 -7z m459 -195 c10 -13 10 -19 -4 -33 -18 -21 -21
-75 -5 -120 11 -31 11 -31 36 -15 35 23 119 23 158 -1 50 -29 69 -64 73 -131
4 -70 -17 -112 -70 -145 -40 -24 -116 -27 -157 -5 -76 39 -109 132 -74 204 11
22 17 45 13 51 -10 17 -81 -85 -73 -106 4 -10 -4 -25 -22 -42 -17 -15 -23 -28
-17 -30 7 -2 12 -10 12 -18 0 -9 -11 -14 -35 -14 -36 0 -50 22 -20 34 8 3 15
12 15 21 0 11 -11 15 -40 15 -34 0 -40 -3 -40 -20 0 -12 -17 -39 -39 -62 -36
-39 -42 -42 -102 -45 -51 -3 -70 0 -97 16 -49 31 -72 76 -72 142 0 49 4 60 36
97 39 46 95 68 150 57 31 -5 35 -3 52 32 20 37 20 37 -1 48 -26 13 -30 27 -15
48 12 15 18 15 81 1 54 -13 67 -19 67 -35 0 -14 -7 -19 -30 -19 l-30 0 37 -69
c21 -38 41 -65 44 -59 4 6 22 9 42 6 30 -3 38 1 57 28 18 27 20 40 15 78 -6
36 -11 46 -26 46 -14 0 -19 7 -19 30 0 29 2 30 44 30 27 0 48 -6 56 -15z"/>
<path d="M307 570 c-18 -29 -18 -30 7 -63 14 -19 31 -48 37 -65 9 -26 16 -32
40 -32 16 0 29 2 29 5 0 7 -89 185 -93 185 -1 0 -11 -13 -20 -30z"/>
<path d="M132 500 c-41 -25 -66 -81 -57 -126 8 -43 57 -92 100 -100 45 -8 103
21 128 64 l19 32 -75 0 c-62 0 -76 3 -82 17 -4 12 1 23 13 34 20 16 52 70 52
89 0 17 -63 11 -98 -10z"/>
<path d="M645 503 l-29 -16 34 -28 c19 -16 42 -29 51 -29 23 0 41 -24 33 -44
-9 -22 -51 -20 -64 3 -5 11 -24 30 -41 42 -26 18 -33 19 -40 8 -28 -45 9 -131
68 -155 48 -20 92 -11 130 26 101 99 -17 261 -142 193z"/>
<path d="M247 455 c-9 -20 -17 -38 -17 -40 0 -3 20 -5 45 -5 25 0 45 3 45 8 0
13 -39 72 -48 72 -5 0 -16 -16 -25 -35z"/>
<path d="M436 465 c4 -8 8 -15 10 -15 2 0 4 7 4 15 0 8 -4 15 -10 15 -5 0 -7
-7 -4 -15z"/>
</g>
</svg>
