<?xml version="1.0" standalone="no"?>
<!DOCTYPE svg PUBLIC "-//W3C//DTD SVG 20010904//EN"
 "http://www.w3.org/TR/2001/REC-SVG-20010904/DTD/svg10.dtd">
<svg version="1.0" xmlns="http://www.w3.org/2000/svg"
 width="26.000000pt" height="26.000000pt" viewBox="0 0 33.000000 33.000000"
 preserveAspectRatio="xMidYMid meet">

<g transform="translate(0.000000,33.000000) scale(0.100000,-0.100000)"
fill="rgb(39, 135,245)" stroke="none">
<path d="M74 324 c-12 -3 -32 -16 -45 -30 -22 -24 -24 -34 -24 -130 0 -100 1
-105 28 -131 26 -27 31 -28 132 -28 101 0 106 1 132 28 27 26 28 31 28 132 0
100 -1 106 -27 132 -25 25 -34 27 -115 29 -48 1 -98 0 -109 -2z m210 -40 c9
-8 16 -22 16 -30 0 -11 -25 -14 -135 -14 -110 0 -135 3 -135 14 0 8 7 22 16
30 22 23 216 23 238 0z m16 -148 c0 -102 -5 -106 -135 -106 -130 0 -135 4
-135 106 l0 74 135 0 135 0 0 -74z"/>
</g>
</svg>
