<?xml version="1.0" standalone="no"?>
<!DOCTYPE svg PUBLIC "-//W3C//DTD SVG 20010904//EN"
 "http://www.w3.org/TR/2001/REC-SVG-20010904/DTD/svg10.dtd">
<svg version="1.0" xmlns="http://www.w3.org/2000/svg"
 width="28.000000pt" height="28.000000pt" viewBox="0 0 30.000000 28.000000"
 preserveAspectRatio="xMidYMid meet">

<g transform="translate(0.000000,28.000000) scale(0.100000,-0.100000)"
fill="rgb(39, 135,245)" stroke="none">
<path d="M97 263 c-4 -3 -7 -39 -7 -80 l0 -73 -34 0 c-19 0 -38 -4 -41 -10 -4
-6 10 -10 34 -10 34 0 41 -3 41 -19 0 -15 -8 -21 -35 -23 -20 -2 -35 -7 -35
-13 0 -5 15 -11 35 -13 19 -2 35 -7 35 -13 0 -5 7 -9 15 -9 8 0 15 4 15 9 0 6
17 11 38 13 20 2 37 8 37 13 0 6 -17 11 -37 13 -30 3 -38 7 -38 23 0 17 7 19
58 19 66 0 93 15 112 60 15 36 0 82 -34 105 -21 15 -146 22 -159 8z m153 -33
c26 -26 26 -74 0 -100 -15 -15 -33 -20 -75 -20 l-55 0 0 70 0 70 55 0 c42 0
60 -5 75 -20z"/>
</g>
</svg>
