<?xml version="1.0" standalone="no"?>
<!DOCTYPE svg PUBLIC "-//W3C//DTD SVG 20010904//EN"
 "http://www.w3.org/TR/2001/REC-SVG-20010904/DTD/svg10.dtd">
<svg version="1.0" xmlns="http://www.w3.org/2000/svg"
 width="32.000000pt" height="32.000000pt" viewBox="0 0 46.000000 40.000000"
 preserveAspectRatio="xMidYMid meet">

<g transform="translate(0.000000,40.000000) scale(0.100000,-0.100000)"
fill="rgb(39, 135,245)" stroke="none">
<path d="M154 376 c-37 -16 -73 -60 -81 -98 -3 -16 -11 -28 -19 -28 -36 0 -56
-82 -32 -135 9 -21 18 -25 55 -25 l43 0 0 80 c0 64 -3 80 -15 80 -38 0 2 81
51 105 66 31 159 7 194 -50 25 -41 25 -51 0 -58 -18 -5 -20 -14 -20 -76 0 -54
4 -73 15 -77 24 -10 18 -43 -11 -54 -37 -14 -64 -12 -64 5 0 8 -4 15 -10 15
-5 0 -10 -11 -10 -25 0 -22 4 -25 34 -25 56 0 86 16 92 50 4 20 13 30 24 30
56 0 66 143 11 157 -11 3 -22 15 -25 28 -9 35 -56 86 -93 101 -41 17 -99 17
-139 0z m-54 -206 c0 -60 0 -60 -29 -60 -31 0 -41 14 -41 60 0 46 10 60 41 60
29 0 29 0 29 -60z m324 28 c15 -42 -3 -82 -37 -86 -27 -3 -27 -3 -27 58 0 61
0 61 27 58 20 -2 30 -11 37 -30z"/>
</g>
</svg>
